<?xml version="1.0" encoding="UTF-8" standalone="no"?>
<!DOCTYPE svg PUBLIC "-//W3C//DTD SVG 1.1//EN"
 "http://www.w3.org/Graphics/SVG/1.1/DTD/svg11.dtd">
<!-- Generated by graphviz version 14.0.2 (20251019.1705)
 -->
<!-- Pages: 1 -->
<svg width="284pt" height="156pt"
 viewBox="0.00 0.00 284.00 156.00" xmlns="http://www.w3.org/2000/svg" xmlns:xlink="http://www.w3.org/1999/xlink">
<g id="graph0" class="graph" transform="scale(1 1) rotate(0) translate(4 152.48)">
<polygon fill="white" stroke="none" points="-4,4 -4,-152.48 279.5,-152.48 279.5,4 -4,4"/>
<!-- &#45;1 -->
<g id="node1" class="node">
<title>&#45;1</title>
<polygon fill="lightgray" stroke="black" points="65.5,-148.48 42,-148.48 42,-129.98 65.5,-129.98 65.5,-148.48"/>
<text xml:space="preserve" text-anchor="middle" x="53.75" y="-135.93" font-family="Times,serif" font-size="9.00">&#45;1</text>
</g>
<!-- 2 -->
<g id="node10" class="node">
<title>2</title>
<ellipse fill="white" stroke="black" cx="90.75" cy="-79.49" rx="14.5" ry="14.5"/>
<text xml:space="preserve" text-anchor="middle" x="90.75" y="-76.19" font-family="Times,serif" font-size="9.00">2</text>
</g>
<!-- &#45;1&#45;&gt;2 -->
<g id="edge1" class="edge">
<title>&#45;1&#45;&gt;2</title>
<path fill="none" stroke="green" stroke-width="0.13" d="M59.21,-129.71C64.07,-122.12 71.38,-110.71 77.74,-100.79"/>
<polygon fill="green" stroke="green" stroke-width="0.13" points="80.66,-102.72 83.11,-92.41 74.77,-98.94 80.66,-102.72"/>
</g>
<!-- 3 -->
<g id="node11" class="node">
<title>3</title>
<ellipse fill="white" stroke="black" cx="137.75" cy="-79.49" rx="14.5" ry="14.5"/>
<text xml:space="preserve" text-anchor="middle" x="137.75" y="-76.19" font-family="Times,serif" font-size="9.00">3</text>
</g>
<!-- &#45;1&#45;&gt;3 -->
<g id="edge2" class="edge">
<title>&#45;1&#45;&gt;3</title>
<path fill="none" stroke="red" stroke-width="0.1" d="M65.79,-129.96C79.34,-120.64 101.57,-105.36 117.74,-94.24"/>
<polygon fill="red" stroke="red" stroke-width="0.1" points="119.63,-97.19 125.88,-88.64 115.66,-91.43 119.63,-97.19"/>
</g>
<!-- 4 -->
<g id="node12" class="node">
<title>4</title>
<ellipse fill="white" stroke="black" cx="184.75" cy="-79.49" rx="14.5" ry="14.5"/>
<text xml:space="preserve" text-anchor="middle" x="184.75" y="-76.19" font-family="Times,serif" font-size="9.00">4</text>
</g>
<!-- &#45;1&#45;&gt;4 -->
<g id="edge3" class="edge">
<title>&#45;1&#45;&gt;4</title>
<path fill="none" stroke="green" stroke-width="0.12" d="M65.71,-133.5C89.72,-123.96 143.03,-102.59 160.75,-93.98 161.74,-93.5 162.74,-93 163.75,-92.48"/>
<polygon fill="green" stroke="green" stroke-width="0.12" points="165.41,-95.56 172.54,-87.72 162.08,-89.41 165.41,-95.56"/>
</g>
<!-- &#45;2 -->
<g id="node2" class="node">
<title>&#45;2</title>
<polygon fill="lightgray" stroke="black" points="107.5,-148.48 84,-148.48 84,-129.98 107.5,-129.98 107.5,-148.48"/>
<text xml:space="preserve" text-anchor="middle" x="95.75" y="-135.93" font-family="Times,serif" font-size="9.00">&#45;2</text>
</g>
<!-- &#45;2&#45;&gt;2 -->
<g id="edge4" class="edge">
<title>&#45;2&#45;&gt;2</title>
<path fill="none" stroke="red" stroke-width="0.15" d="M95.01,-129.71C94.43,-123.04 93.6,-113.41 92.82,-104.44"/>
<polygon fill="red" stroke="red" stroke-width="0.15" points="96.33,-104.3 91.98,-94.64 89.35,-104.9 96.33,-104.3"/>
</g>
<!-- &#45;2&#45;&gt;3 -->
<g id="edge5" class="edge">
<title>&#45;2&#45;&gt;3</title>
<path fill="none" stroke="green" stroke-width="0.11" d="M101.95,-129.71C107.65,-121.87 116.32,-109.95 123.7,-99.8"/>
<polygon fill="green" stroke="green" stroke-width="0.11" points="126.36,-102.1 129.41,-91.96 120.7,-97.98 126.36,-102.1"/>
</g>
<!-- &#45;2&#45;&gt;4 -->
<g id="edge6" class="edge">
<title>&#45;2&#45;&gt;4</title>
<path fill="none" stroke="green" stroke-width="0.11" d="M107.75,-130.44C122.22,-121.06 146.76,-105.14 164.24,-93.79"/>
<polygon fill="green" stroke="green" stroke-width="0.11" points="166.03,-96.81 172.51,-88.43 162.22,-90.94 166.03,-96.81"/>
</g>
<!-- &#45;3 -->
<g id="node3" class="node">
<title>&#45;3</title>
<polygon fill="lightgray" stroke="black" points="149.5,-148.48 126,-148.48 126,-129.98 149.5,-129.98 149.5,-148.48"/>
<text xml:space="preserve" text-anchor="middle" x="137.75" y="-135.93" font-family="Times,serif" font-size="9.00">&#45;3</text>
</g>
<!-- &#45;3&#45;&gt;2 -->
<g id="edge7" class="edge">
<title>&#45;3&#45;&gt;2</title>
<path fill="none" stroke="red" stroke-width="0.1" d="M130.81,-129.71C124.29,-121.69 114.29,-109.41 105.91,-99.12"/>
<polygon fill="red" stroke="red" stroke-width="0.1" points="108.77,-97.08 99.74,-91.53 103.34,-101.5 108.77,-97.08"/>
</g>
<!-- &#45;3&#45;&gt;3 -->
<g id="edge8" class="edge">
<title>&#45;3&#45;&gt;3</title>
<path fill="none" stroke="green" stroke-width="0.1" d="M137.75,-129.71C137.75,-123.04 137.75,-113.41 137.75,-104.44"/>
<polygon fill="green" stroke="green" stroke-width="0.1" points="141.25,-104.57 137.75,-94.57 134.25,-104.57 141.25,-104.57"/>
</g>
<!-- &#45;3&#45;&gt;4 -->
<g id="edge9" class="edge">
<title>&#45;3&#45;&gt;4</title>
<path fill="none" stroke="red" stroke-width="0.12" d="M144.69,-129.71C151.21,-121.69 161.21,-109.41 169.59,-99.12"/>
<polygon fill="red" stroke="red" stroke-width="0.12" points="172.14,-101.52 175.74,-91.56 166.71,-97.1 172.14,-101.52"/>
</g>
<!-- &#45;4 -->
<g id="node4" class="node">
<title>&#45;4</title>
<polygon fill="lightgray" stroke="black" points="191.5,-148.48 168,-148.48 168,-129.98 191.5,-129.98 191.5,-148.48"/>
<text xml:space="preserve" text-anchor="middle" x="179.75" y="-135.93" font-family="Times,serif" font-size="9.00">&#45;4</text>
</g>
<!-- &#45;4&#45;&gt;2 -->
<g id="edge10" class="edge">
<title>&#45;4&#45;&gt;2</title>
<path fill="none" stroke="green" stroke-width="0.15" d="M167.75,-130.44C153.28,-121.06 128.74,-105.14 111.26,-93.79"/>
<polygon fill="green" stroke="green" stroke-width="0.15" points="113.34,-90.97 103.04,-88.46 109.53,-96.84 113.34,-90.97"/>
</g>
<!-- &#45;4&#45;&gt;3 -->
<g id="edge11" class="edge">
<title>&#45;4&#45;&gt;3</title>
<path fill="none" stroke="green" stroke-width="0.1" d="M173.55,-129.71C167.85,-121.87 159.18,-109.95 151.8,-99.8"/>
<polygon fill="green" stroke="green" stroke-width="0.1" points="154.8,-97.98 146.09,-91.95 149.14,-102.1 154.8,-97.98"/>
</g>
<!-- &#45;4&#45;&gt;4 -->
<g id="edge12" class="edge">
<title>&#45;4&#45;&gt;4</title>
<path fill="none" stroke="green" stroke-width="0.11" d="M180.49,-129.71C181.07,-123.04 181.9,-113.41 182.68,-104.44"/>
<polygon fill="green" stroke="green" stroke-width="0.11" points="186.15,-104.85 183.53,-94.59 179.18,-104.25 186.15,-104.85"/>
</g>
<!-- &#45;5 -->
<g id="node5" class="node">
<title>&#45;5</title>
<polygon fill="lightgray" stroke="black" points="233.5,-148.48 210,-148.48 210,-129.98 233.5,-129.98 233.5,-148.48"/>
<text xml:space="preserve" text-anchor="middle" x="221.75" y="-135.93" font-family="Times,serif" font-size="9.00">&#45;5</text>
</g>
<!-- &#45;5&#45;&gt;2 -->
<g id="edge13" class="edge">
<title>&#45;5&#45;&gt;2</title>
<path fill="none" stroke="red" stroke-width="0.1" d="M209.79,-133.5C185.78,-123.96 132.47,-102.59 114.75,-93.98 113.64,-93.44 112.5,-92.87 111.37,-92.29"/>
<polygon fill="red" stroke="red" stroke-width="0.1" points="113.4,-89.41 102.94,-87.71 110.06,-95.56 113.4,-89.41"/>
</g>
<!-- &#45;5&#45;&gt;3 -->
<g id="edge14" class="edge">
<title>&#45;5&#45;&gt;3</title>
<path fill="none" stroke="red" stroke-width="0.11" d="M209.71,-129.96C196.16,-120.64 173.93,-105.36 157.76,-94.24"/>
<polygon fill="red" stroke="red" stroke-width="0.11" points="159.85,-91.43 149.63,-88.65 155.88,-97.2 159.85,-91.43"/>
</g>
<!-- &#45;5&#45;&gt;4 -->
<g id="edge15" class="edge">
<title>&#45;5&#45;&gt;4</title>
<path fill="none" stroke="red" stroke-width="0.1" d="M216.29,-129.71C211.43,-122.12 204.12,-110.71 197.76,-100.79"/>
<polygon fill="red" stroke="red" stroke-width="0.1" points="200.71,-98.91 192.37,-92.38 194.82,-102.69 200.71,-98.91"/>
</g>
<!-- &#45;6 -->
<g id="node6" class="node">
<title>&#45;6</title>
<polygon fill="lightgray" stroke="black" points="275.5,-148.48 252,-148.48 252,-129.98 275.5,-129.98 275.5,-148.48"/>
<text xml:space="preserve" text-anchor="middle" x="263.75" y="-135.93" font-family="Times,serif" font-size="9.00">&#45;6</text>
</g>
<!-- &#45;6&#45;&gt;2 -->
<g id="edge16" class="edge">
<title>&#45;6&#45;&gt;2</title>
<path fill="none" stroke="green" stroke-width="0.12" d="M251.83,-133.31C248.89,-132.16 245.72,-130.98 242.75,-129.98 186.73,-111.15 169.34,-116.63 114.75,-93.98 113.73,-93.56 112.71,-93.11 111.68,-92.63"/>
<polygon fill="green" stroke="green" stroke-width="0.12" points="113.32,-89.54 102.83,-88.01 110.08,-95.74 113.32,-89.54"/>
</g>
<!-- &#45;6&#45;&gt;3 -->
<g id="edge17" class="edge">
<title>&#45;6&#45;&gt;3</title>
<path fill="none" stroke="red" stroke-width="0.12" d="M251.63,-133.45C232.34,-125.73 193.56,-109.78 161.75,-93.98 160.77,-93.49 159.76,-92.98 158.76,-92.46"/>
<polygon fill="red" stroke="red" stroke-width="0.12" points="160.45,-89.4 149.99,-87.69 157.1,-95.54 160.45,-89.4"/>
</g>
<!-- &#45;6&#45;&gt;4 -->
<g id="edge18" class="edge">
<title>&#45;6&#45;&gt;4</title>
<path fill="none" stroke="red" stroke-width="0.1" d="M252.09,-129.71C239.54,-120.53 219.34,-105.77 204.34,-94.8"/>
<polygon fill="red" stroke="red" stroke-width="0.1" points="206.46,-92.02 196.32,-88.95 202.33,-97.67 206.46,-92.02"/>
</g>
<!-- &#45;7 -->
<g id="node7" class="node">
<title>&#45;7</title>
<polygon fill="lightgray" stroke="black" points="23.5,-148.48 0,-148.48 0,-129.98 23.5,-129.98 23.5,-148.48"/>
<text xml:space="preserve" text-anchor="middle" x="11.75" y="-135.93" font-family="Times,serif" font-size="9.00">&#45;7</text>
</g>
<!-- &#45;7&#45;&gt;2 -->
<g id="edge19" class="edge">
<title>&#45;7&#45;&gt;2</title>
<path fill="none" stroke="red" stroke-width="0.1" d="M23.41,-129.71C35.96,-120.53 56.16,-105.77 71.16,-94.8"/>
<polygon fill="red" stroke="red" stroke-width="0.1" points="73.17,-97.67 79.18,-88.94 69.04,-92.02 73.17,-97.67"/>
</g>
<!-- &#45;7&#45;&gt;3 -->
<g id="edge20" class="edge">
<title>&#45;7&#45;&gt;3</title>
<path fill="none" stroke="red" stroke-width="0.14" d="M23.87,-133.45C43.16,-125.73 81.94,-109.78 113.75,-93.98 114.73,-93.49 115.74,-92.98 116.74,-92.46"/>
<polygon fill="red" stroke="red" stroke-width="0.14" points="118.38,-95.55 125.49,-87.7 115.03,-89.41 118.38,-95.55"/>
</g>
<!-- &#45;7&#45;&gt;4 -->
<g id="edge21" class="edge">
<title>&#45;7&#45;&gt;4</title>
<path fill="none" stroke="green" stroke-width="0.1" d="M23.67,-133.31C26.61,-132.16 29.78,-130.98 32.75,-129.98 88.77,-111.15 106.16,-116.63 160.75,-93.98 161.77,-93.56 162.79,-93.11 163.82,-92.63"/>
<polygon fill="green" stroke="green" stroke-width="0.1" points="165.44,-95.73 172.68,-88 162.2,-89.53 165.44,-95.73"/>
</g>
<!-- 0 -->
<g id="node8" class="node">
<title>0</title>
<ellipse fill="lightblue" stroke="black" cx="113.75" cy="-14.5" rx="14.5" ry="14.5"/>
<text xml:space="preserve" text-anchor="middle" x="113.75" y="-11.2" font-family="Times,serif" font-size="9.00">0</text>
</g>
<!-- 1 -->
<g id="node9" class="node">
<title>1</title>
<ellipse fill="lightblue" stroke="black" cx="160.75" cy="-14.5" rx="14.5" ry="14.5"/>
<text xml:space="preserve" text-anchor="middle" x="160.75" y="-11.2" font-family="Times,serif" font-size="9.00">1</text>
</g>
<!-- 2&#45;&gt;0 -->
<g id="edge22" class="edge">
<title>2&#45;&gt;0</title>
<path fill="none" stroke="red" stroke-width="0.12" d="M95.52,-65.44C98.41,-57.5 102.19,-47.14 105.56,-37.92"/>
<polygon fill="red" stroke="red" stroke-width="0.12" points="108.78,-39.3 108.93,-28.71 102.21,-36.9 108.78,-39.3"/>
</g>
<!-- 2&#45;&gt;1 -->
<g id="edge23" class="edge">
<title>2&#45;&gt;1</title>
<path fill="none" stroke="green" stroke-width="0.13" d="M101.38,-68.92C112.4,-59 129.83,-43.32 142.95,-31.51"/>
<polygon fill="green" stroke="green" stroke-width="0.13" points="145.23,-34.17 150.32,-24.88 140.55,-28.97 145.23,-34.17"/>
</g>
<!-- 3&#45;&gt;0 -->
<g id="edge24" class="edge">
<title>3&#45;&gt;0</title>
<path fill="none" stroke="red" stroke-width="0.1" d="M132.78,-65.44C129.75,-57.5 125.81,-47.14 122.29,-37.92"/>
<polygon fill="red" stroke="red" stroke-width="0.1" points="125.6,-36.78 118.77,-28.68 119.06,-39.27 125.6,-36.78"/>
</g>
<!-- 3&#45;&gt;1 -->
<g id="edge25" class="edge">
<title>3&#45;&gt;1</title>
<path fill="none" stroke="red" stroke-width="0.11" d="M142.52,-65.44C145.41,-57.5 149.19,-47.14 152.56,-37.92"/>
<polygon fill="red" stroke="red" stroke-width="0.11" points="155.79,-39.29 155.93,-28.69 149.21,-36.89 155.79,-39.29"/>
</g>
<!-- 4&#45;&gt;0 -->
<g id="edge26" class="edge">
<title>4&#45;&gt;0</title>
<path fill="none" stroke="green" stroke-width="0.13" d="M174.27,-69.19C163.05,-59.24 145.04,-43.26 131.58,-31.32"/>
<polygon fill="green" stroke="green" stroke-width="0.13" points="134.22,-28.98 124.42,-24.96 129.57,-34.21 134.22,-28.98"/>
</g>
<!-- 4&#45;&gt;1 -->
<g id="edge27" class="edge">
<title>4&#45;&gt;1</title>
<path fill="none" stroke="green" stroke-width="0.1" d="M179.78,-65.44C176.75,-57.5 172.81,-47.14 169.29,-37.92"/>
<polygon fill="green" stroke="green" stroke-width="0.1" points="172.6,-36.77 165.77,-28.68 166.06,-39.27 172.6,-36.77"/>
</g>
</g>
</svg>
