<?xml version="1.0" encoding="UTF-8" standalone="no"?>
<!DOCTYPE svg PUBLIC "-//W3C//DTD SVG 1.1//EN"
 "http://www.w3.org/Graphics/SVG/1.1/DTD/svg11.dtd">
<!-- Generated by graphviz version 14.0.2 (20251019.1705)
 -->
<!-- Pages: 1 -->
<svg width="519pt" height="126pt"
 viewBox="0.00 0.00 519.00 126.00" xmlns="http://www.w3.org/2000/svg" xmlns:xlink="http://www.w3.org/1999/xlink">
<g id="graph0" class="graph" transform="scale(1 1) rotate(0) translate(4 122.49)">
<polygon fill="white" stroke="none" points="-4,4 -4,-122.49 514.62,-122.49 514.62,4 -4,4"/>
<!-- Blob_X -->
<g id="node1" class="node">
<title>Blob_X</title>
<polygon fill="lightgray" stroke="black" points="210,-118.49 165.5,-118.49 165.5,-99.99 210,-99.99 210,-118.49"/>
<text xml:space="preserve" text-anchor="middle" x="187.75" y="-105.94" font-family="Times New Roman,serif" font-size="9.00">Blob_X</text>
</g>
<!-- Vel_Izq -->
<g id="node10" class="node">
<title>Vel_Izq</title>
<ellipse fill="lightblue" stroke="black" cx="212.75" cy="-32" rx="30.41" ry="30.41"/>
<text xml:space="preserve" text-anchor="middle" x="212.75" y="-28.7" font-family="Times New Roman,serif" font-size="9.00">Vel_Izq</text>
</g>
<!-- Blob_X&#45;&gt;Vel_Izq -->
<g id="edge1" class="edge">
<title>Blob_X&#45;&gt;Vel_Izq</title>
<path fill="none" stroke="red" stroke-width="0.12" d="M190.62,-99.61C193.02,-92.39 196.62,-81.54 200.23,-70.69"/>
<polygon fill="red" stroke="red" stroke-width="0.12" points="203.48,-72.01 203.31,-61.42 196.83,-69.8 203.48,-72.01"/>
</g>
<!-- Vel_Der -->
<g id="node11" class="node">
<title>Vel_Der</title>
<ellipse fill="lightblue" stroke="black" cx="292.75" cy="-32" rx="32" ry="32"/>
<text xml:space="preserve" text-anchor="middle" x="292.75" y="-28.7" font-family="Times New Roman,serif" font-size="9.00">Vel_Der</text>
</g>
<!-- Blob_X&#45;&gt;Vel_Der -->
<g id="edge2" class="edge">
<title>Blob_X&#45;&gt;Vel_Der</title>
<path fill="none" stroke="red" stroke-width="0.11" d="M200.61,-99.59C213.62,-90.78 234.24,-76.66 251.75,-63.99 254.35,-62.11 257.03,-60.14 259.72,-58.16"/>
<polygon fill="red" stroke="red" stroke-width="0.11" points="261.67,-61.07 267.59,-52.28 257.48,-55.46 261.67,-61.07"/>
</g>
<!-- Blob_Y -->
<g id="node2" class="node">
<title>Blob_Y</title>
<polygon fill="lightgray" stroke="black" points="273,-118.49 228.5,-118.49 228.5,-99.99 273,-99.99 273,-118.49"/>
<text xml:space="preserve" text-anchor="middle" x="250.75" y="-105.94" font-family="Times New Roman,serif" font-size="9.00">Blob_Y</text>
</g>
<!-- Blob_Y&#45;&gt;Vel_Izq -->
<g id="edge3" class="edge">
<title>Blob_Y&#45;&gt;Vel_Izq</title>
<path fill="none" stroke="green" stroke-width="0.11" d="M246.39,-99.61C242.48,-91.86 236.46,-79.94 230.59,-68.32"/>
<polygon fill="green" stroke="green" stroke-width="0.11" points="233.87,-67.06 226.24,-59.71 227.63,-70.22 233.87,-67.06"/>
</g>
<!-- Blob_Y&#45;&gt;Vel_Der -->
<g id="edge4" class="edge">
<title>Blob_Y&#45;&gt;Vel_Der</title>
<path fill="none" stroke="green" stroke-width="0.1" d="M255.57,-99.61C259.79,-92.04 266.23,-80.51 272.57,-69.15"/>
<polygon fill="green" stroke="green" stroke-width="0.1" points="275.47,-71.14 277.28,-60.7 269.35,-67.73 275.47,-71.14"/>
</g>
<!-- IR_delante -->
<g id="node3" class="node">
<title>IR_delante</title>
<polygon fill="lightgray" stroke="black" points="344.88,-118.49 290.62,-118.49 290.62,-99.99 344.88,-99.99 344.88,-118.49"/>
<text xml:space="preserve" text-anchor="middle" x="317.75" y="-105.94" font-family="Times New Roman,serif" font-size="9.00">IR_delante</text>
</g>
<!-- IR_delante&#45;&gt;Vel_Izq -->
<g id="edge5" class="edge">
<title>IR_delante&#45;&gt;Vel_Izq</title>
<path fill="none" stroke="green" stroke-width="0.11" d="M304.13,-99.57C290.63,-90.87 269.46,-76.94 251.75,-63.99 249.17,-62.11 246.51,-60.12 243.87,-58.09"/>
<polygon fill="green" stroke="green" stroke-width="0.11" points="246.19,-55.47 236.15,-52.09 241.9,-60.99 246.19,-55.47"/>
</g>
<!-- IR_delante&#45;&gt;Vel_Der -->
<g id="edge6" class="edge">
<title>IR_delante&#45;&gt;Vel_Der</title>
<path fill="none" stroke="red" stroke-width="0.11" d="M314.88,-99.61C312.58,-92.7 309.18,-82.46 305.74,-72.08"/>
<polygon fill="red" stroke="red" stroke-width="0.11" points="309.11,-71.14 302.64,-62.75 302.47,-73.35 309.11,-71.14"/>
</g>
<!-- IR_atras -->
<g id="node4" class="node">
<title>IR_atras</title>
<polygon fill="lightgray" stroke="black" points="408.75,-118.49 362.75,-118.49 362.75,-99.99 408.75,-99.99 408.75,-118.49"/>
<text xml:space="preserve" text-anchor="middle" x="385.75" y="-105.94" font-family="Times New Roman,serif" font-size="9.00">IR_atras</text>
</g>
<!-- IR_atras&#45;&gt;Vel_Izq -->
<g id="edge7" class="edge">
<title>IR_atras&#45;&gt;Vel_Izq</title>
<path fill="none" stroke="green" stroke-width="0.11" d="M362.46,-101.63C329.52,-92.09 271.15,-74.47 251.75,-63.99 248.93,-62.47 246.12,-60.74 243.36,-58.9"/>
<polygon fill="green" stroke="green" stroke-width="0.11" points="245.61,-56.21 235.45,-53.2 241.52,-61.89 245.61,-56.21"/>
</g>
<!-- IR_atras&#45;&gt;Vel_Der -->
<g id="edge8" class="edge">
<title>IR_atras&#45;&gt;Vel_Der</title>
<path fill="none" stroke="green" stroke-width="0.1" d="M375.08,-99.61C362.92,-89.77 342.45,-73.21 324.97,-59.07"/>
<polygon fill="green" stroke="green" stroke-width="0.1" points="327.28,-56.44 317.31,-52.87 322.88,-61.88 327.28,-56.44"/>
</g>
<!-- IR_ll -->
<g id="node5" class="node">
<title>IR_ll</title>
<polygon fill="lightgray" stroke="black" points="460.75,-118.49 426.75,-118.49 426.75,-99.99 460.75,-99.99 460.75,-118.49"/>
<text xml:space="preserve" text-anchor="middle" x="443.75" y="-105.94" font-family="Times New Roman,serif" font-size="9.00">IR_ll</text>
</g>
<!-- IR_ll&#45;&gt;Vel_Izq -->
<g id="edge9" class="edge">
<title>IR_ll&#45;&gt;Vel_Izq</title>
<path fill="none" stroke="green" stroke-width="0.11" d="M426.47,-102.51C423.58,-101.62 420.59,-100.75 417.75,-99.99 344.8,-80.56 319.97,-96.32 251.75,-63.99 248.78,-62.59 245.83,-60.91 242.97,-59.09"/>
<polygon fill="green" stroke="green" stroke-width="0.11" points="244.99,-56.23 234.8,-53.34 240.96,-61.96 244.99,-56.23"/>
</g>
<!-- IR_ll&#45;&gt;Vel_Der -->
<g id="edge10" class="edge">
<title>IR_ll&#45;&gt;Vel_Der</title>
<path fill="none" stroke="green" stroke-width="0.14" d="M426.43,-99.61C403.12,-88 361.04,-67.03 330.31,-51.71"/>
<polygon fill="green" stroke="green" stroke-width="0.14" points="331.87,-48.58 321.36,-47.25 328.74,-54.84 331.87,-48.58"/>
</g>
<!-- IR_l -->
<g id="node6" class="node">
<title>IR_l</title>
<polygon fill="lightgray" stroke="black" points="510.62,-118.49 478.88,-118.49 478.88,-99.99 510.62,-99.99 510.62,-118.49"/>
<text xml:space="preserve" text-anchor="middle" x="494.75" y="-105.94" font-family="Times New Roman,serif" font-size="9.00">IR_l</text>
</g>
<!-- IR_l&#45;&gt;Vel_Izq -->
<g id="edge11" class="edge">
<title>IR_l&#45;&gt;Vel_Izq</title>
<path fill="none" stroke="green" stroke-width="0.13" d="M478.45,-102.46C475.57,-101.56 472.59,-100.69 469.75,-99.99 374.39,-76.54 341.51,-103.82 251.75,-63.99 248.75,-62.66 245.77,-61.04 242.89,-59.25"/>
<polygon fill="green" stroke="green" stroke-width="0.13" points="244.94,-56.41 234.73,-53.58 240.95,-62.16 244.94,-56.41"/>
</g>
<!-- IR_l&#45;&gt;Vel_Der -->
<g id="edge12" class="edge">
<title>IR_l&#45;&gt;Vel_Der</title>
<path fill="none" stroke="green" stroke-width="0.15" d="M478.56,-102.21C446.99,-90.45 376.39,-64.15 331.87,-47.57"/>
<polygon fill="green" stroke="green" stroke-width="0.15" points="333.33,-44.38 322.73,-44.17 330.88,-50.94 333.33,-44.38"/>
</g>
<!-- IR_rr -->
<g id="node7" class="node">
<title>IR_rr</title>
<polygon fill="lightgray" stroke="black" points="35.5,-118.49 0,-118.49 0,-99.99 35.5,-99.99 35.5,-118.49"/>
<text xml:space="preserve" text-anchor="middle" x="17.75" y="-105.94" font-family="Times New Roman,serif" font-size="9.00">IR_rr</text>
</g>
<!-- IR_rr&#45;&gt;Vel_Izq -->
<g id="edge13" class="edge">
<title>IR_rr&#45;&gt;Vel_Izq</title>
<path fill="none" stroke="green" stroke-width="0.11" d="M35.75,-101.3C67.32,-89.11 133.33,-63.64 175.21,-47.48"/>
<polygon fill="green" stroke="green" stroke-width="0.11" points="176.3,-50.81 184.37,-43.95 173.78,-44.28 176.3,-50.81"/>
</g>
<!-- IR_rr&#45;&gt;Vel_Der -->
<g id="edge14" class="edge">
<title>IR_rr&#45;&gt;Vel_Der</title>
<path fill="none" stroke="green" stroke-width="0.11" d="M35.97,-102.34C38.89,-101.49 41.89,-100.68 44.75,-99.99 135.58,-78.31 166.1,-101.2 251.75,-63.99 254.87,-62.64 257.98,-61 261,-59.19"/>
<polygon fill="green" stroke="green" stroke-width="0.11" points="262.69,-62.26 269.09,-53.82 258.82,-56.43 262.69,-62.26"/>
</g>
<!-- IR_r -->
<g id="node8" class="node">
<title>IR_r</title>
<polygon fill="lightgray" stroke="black" points="86,-118.49 53.5,-118.49 53.5,-99.99 86,-99.99 86,-118.49"/>
<text xml:space="preserve" text-anchor="middle" x="69.75" y="-105.94" font-family="Times New Roman,serif" font-size="9.00">IR_r</text>
</g>
<!-- IR_r&#45;&gt;Vel_Izq -->
<g id="edge15" class="edge">
<title>IR_r&#45;&gt;Vel_Izq</title>
<path fill="none" stroke="red" stroke-width="0.11" d="M86.15,-99.61C108.23,-88 148.07,-67.03 177.18,-51.71"/>
<polygon fill="red" stroke="red" stroke-width="0.11" points="178.48,-54.98 185.7,-47.23 175.22,-48.79 178.48,-54.98"/>
</g>
<!-- IR_r&#45;&gt;Vel_Der -->
<g id="edge16" class="edge">
<title>IR_r&#45;&gt;Vel_Der</title>
<path fill="none" stroke="green" stroke-width="0.14" d="M86.36,-102.52C89.15,-101.63 92.02,-100.75 94.75,-99.99 163.71,-80.76 186.87,-94.25 251.75,-63.99 254.66,-62.64 257.56,-61.05 260.4,-59.32"/>
<polygon fill="green" stroke="green" stroke-width="0.14" points="262.11,-62.38 268.5,-53.93 258.23,-56.56 262.11,-62.38"/>
</g>
<!-- Tamano -->
<g id="node9" class="node">
<title>Tamano</title>
<polygon fill="lightgray" stroke="black" points="147.62,-118.49 103.88,-118.49 103.88,-99.99 147.62,-99.99 147.62,-118.49"/>
<text xml:space="preserve" text-anchor="middle" x="125.75" y="-105.94" font-family="Times New Roman,serif" font-size="9.00">Tamano</text>
</g>
<!-- Tamano&#45;&gt;Vel_Izq -->
<g id="edge17" class="edge">
<title>Tamano&#45;&gt;Vel_Izq</title>
<path fill="none" stroke="green" stroke-width="0.1" d="M135.73,-99.61C147.11,-89.77 166.25,-73.21 182.61,-59.07"/>
<polygon fill="green" stroke="green" stroke-width="0.1" points="184.5,-62.06 189.77,-52.87 179.92,-56.77 184.5,-62.06"/>
</g>
<!-- Tamano&#45;&gt;Vel_Der -->
<g id="edge18" class="edge">
<title>Tamano&#45;&gt;Vel_Der</title>
<path fill="none" stroke="green" stroke-width="0.1" d="M147.87,-101.39C178.85,-91.63 233.42,-73.83 251.75,-63.99 254.58,-62.47 257.43,-60.77 260.23,-58.96"/>
<polygon fill="green" stroke="green" stroke-width="0.1" points="262.05,-61.95 268.3,-53.4 258.08,-56.19 262.05,-61.95"/>
</g>
</g>
</svg>
