<?xml version="1.0" encoding="UTF-8" standalone="no"?>
<!DOCTYPE svg PUBLIC "-//W3C//DTD SVG 1.1//EN"
 "http://www.w3.org/Graphics/SVG/1.1/DTD/svg11.dtd">
<!-- Generated by graphviz version 14.0.2 (20251019.1705)
 -->
<!-- Pages: 1 -->
<svg width="560pt" height="191pt"
 viewBox="0.00 0.00 560.00 191.00" xmlns="http://www.w3.org/2000/svg" xmlns:xlink="http://www.w3.org/1999/xlink">
<g id="graph0" class="graph" transform="scale(1 1) rotate(0) translate(4 187.48)">
<polygon fill="white" stroke="none" points="-4,4 -4,-187.48 556.23,-187.48 556.23,4 -4,4"/>
<!-- Blob_X -->
<g id="node1" class="node">
<title>Blob_X</title>
<polygon fill="lightgray" stroke="black" points="126.99,-123.74 82.49,-123.74 82.49,-105.24 126.99,-105.24 126.99,-123.74"/>
<text xml:space="preserve" text-anchor="middle" x="104.74" y="-111.19" font-family="Times New Roman,serif" font-size="9.00">Blob_X</text>
</g>
<!-- Vel_Izq -->
<g id="node10" class="node">
<title>Vel_Izq</title>
<ellipse fill="lightblue" stroke="black" cx="330.74" cy="-32" rx="30.41" ry="30.41"/>
<text xml:space="preserve" text-anchor="middle" x="330.74" y="-28.7" font-family="Times New Roman,serif" font-size="9.00">Vel_Izq</text>
</g>
<!-- Blob_X&#45;&gt;Vel_Izq -->
<g id="edge1" class="edge">
<title>Blob_X&#45;&gt;Vel_Izq</title>
<path fill="none" stroke="red" stroke-width="0.15" stroke-dasharray="1,5" d="M124.2,-104.75C128.3,-103.06 132.63,-101.38 136.74,-99.99 197.19,-79.54 216.55,-87.86 275.74,-63.99 282.59,-61.23 289.64,-57.78 296.32,-54.18"/>
<polygon fill="red" stroke="red" stroke-width="0.15" points="297.92,-57.3 304.94,-49.36 294.5,-51.19 297.92,-57.3"/>
</g>
<!-- Vel_Der -->
<g id="node11" class="node">
<title>Vel_Der</title>
<ellipse fill="lightblue" stroke="black" cx="234.74" cy="-32" rx="32" ry="32"/>
<text xml:space="preserve" text-anchor="middle" x="234.74" y="-28.7" font-family="Times New Roman,serif" font-size="9.00">Vel_Der</text>
</g>
<!-- Blob_X&#45;&gt;Vel_Der -->
<g id="edge2" class="edge">
<title>Blob_X&#45;&gt;Vel_Der</title>
<path fill="none" stroke="green" stroke-width="0.1" d="M118.65,-104.87C137.74,-93.05 172.72,-71.4 199.3,-54.94"/>
<polygon fill="green" stroke="green" stroke-width="0.1" points="200.82,-58.12 207.48,-49.88 197.13,-52.17 200.82,-58.12"/>
</g>
<!-- Blob_Y -->
<g id="node2" class="node">
<title>Blob_Y</title>
<polygon fill="lightgray" stroke="black" points="189.99,-123.74 145.49,-123.74 145.49,-105.24 189.99,-105.24 189.99,-123.74"/>
<text xml:space="preserve" text-anchor="middle" x="167.74" y="-111.19" font-family="Times New Roman,serif" font-size="9.00">Blob_Y</text>
</g>
<!-- Blob_Y&#45;&gt;Vel_Izq -->
<g id="edge3" class="edge">
<title>Blob_Y&#45;&gt;Vel_Izq</title>
<path fill="none" stroke="red" stroke-width="0.11" stroke-dasharray="1,5" d="M187.15,-104.83C213.56,-93 259.39,-72.33 275.74,-63.99 282.32,-60.64 289.24,-56.9 295.88,-53.22"/>
<polygon fill="red" stroke="red" stroke-width="0.11" points="297.54,-56.3 304.54,-48.35 294.11,-50.2 297.54,-56.3"/>
</g>
<!-- Blob_Y&#45;&gt;Vel_Der -->
<g id="edge4" class="edge">
<title>Blob_Y&#45;&gt;Vel_Der</title>
<path fill="none" stroke="red" stroke-width="0.17" d="M174.91,-104.87C182.83,-95.36 196.05,-79.48 208.05,-65.06"/>
<polygon fill="red" stroke="red" stroke-width="0.17" points="210.68,-67.37 214.39,-57.44 205.3,-62.89 210.68,-67.37"/>
</g>
<!-- IR_delante -->
<g id="node3" class="node">
<title>IR_delante</title>
<polygon fill="lightgray" stroke="black" points="261.86,-123.74 207.61,-123.74 207.61,-105.24 261.86,-105.24 261.86,-123.74"/>
<text xml:space="preserve" text-anchor="middle" x="234.74" y="-111.19" font-family="Times New Roman,serif" font-size="9.00">IR_delante</text>
</g>
<!-- IR_delante&#45;&gt;Vel_Izq -->
<g id="edge5" class="edge">
<title>IR_delante&#45;&gt;Vel_Izq</title>
<path fill="none" stroke="red" stroke-width="0.14" d="M245.01,-104.87C258.05,-93.94 281.11,-74.61 300.04,-58.74"/>
<polygon fill="red" stroke="red" stroke-width="0.14" points="302.28,-61.43 307.69,-52.32 297.78,-56.06 302.28,-61.43"/>
</g>
<!-- IR_delante&#45;&gt;Vel_Der -->
<g id="edge6" class="edge">
<title>IR_delante&#45;&gt;Vel_Der</title>
<path fill="none" stroke="green" stroke-width="0.15" d="M234.74,-104.87C234.74,-97.41 234.74,-86.02 234.74,-74.5"/>
<polygon fill="green" stroke="green" stroke-width="0.15" points="238.24,-74.65 234.74,-64.65 231.24,-74.65 238.24,-74.65"/>
</g>
<!-- IR_atras -->
<g id="node4" class="node">
<title>IR_atras</title>
<polygon fill="lightgray" stroke="black" points="518.74,-183.48 472.74,-183.48 472.74,-164.98 518.74,-164.98 518.74,-183.48"/>
<text xml:space="preserve" text-anchor="middle" x="495.74" y="-170.93" font-family="Times New Roman,serif" font-size="9.00">IR_atras</text>
</g>
<!-- IR_atras&#45;&gt;Vel_Izq -->
<g id="edge7" class="edge">
<title>IR_atras&#45;&gt;Vel_Izq</title>
<path fill="none" stroke="green" stroke-width="0.16" stroke-dasharray="1,5" d="M495.8,-164.96C495.47,-150.2 492.76,-119.13 476.74,-99.99 449.72,-67.73 403.83,-50.23 370.7,-41.29"/>
<polygon fill="green" stroke="green" stroke-width="0.16" points="371.66,-37.92 361.1,-38.84 369.93,-44.7 371.66,-37.92"/>
</g>
<!-- IR_atras&#45;&gt;Vel_Der -->
<g id="edge8" class="edge">
<title>IR_atras&#45;&gt;Vel_Der</title>
<path fill="none" stroke="green" stroke-width="0.1" d="M472.52,-172.9C380.27,-171.36 43.13,-163.38 11.74,-128.98 -43.58,-68.38 114.19,-44.44 192.96,-36.45"/>
<polygon fill="green" stroke="green" stroke-width="0.1" points="192.84,-39.98 202.45,-35.52 192.16,-33.01 192.84,-39.98"/>
</g>
<!-- 4 -->
<g id="node12" class="node">
<title>4</title>
<ellipse fill="white" stroke="black" cx="537.74" cy="-114.49" rx="14.5" ry="14.5"/>
<text xml:space="preserve" text-anchor="middle" x="537.74" y="-111.19" font-family="Times New Roman,serif" font-size="9.00">4</text>
</g>
<!-- IR_atras&#45;&gt;4 -->
<g id="edge19" class="edge">
<title>IR_atras&#45;&gt;4</title>
<path fill="none" stroke="green" stroke-width="0.31" d="M501.94,-164.71C507.58,-156.95 516.14,-145.19 523.47,-135.11"/>
<polygon fill="green" stroke="green" stroke-width="0.31" points="526.16,-137.35 529.22,-127.21 520.5,-133.24 526.16,-137.35"/>
</g>
<!-- IR_ll -->
<g id="node5" class="node">
<title>IR_ll</title>
<polygon fill="lightgray" stroke="black" points="313.74,-123.74 279.74,-123.74 279.74,-105.24 313.74,-105.24 313.74,-123.74"/>
<text xml:space="preserve" text-anchor="middle" x="296.74" y="-111.19" font-family="Times New Roman,serif" font-size="9.00">IR_ll</text>
</g>
<!-- IR_ll&#45;&gt;Vel_Izq -->
<g id="edge9" class="edge">
<title>IR_ll&#45;&gt;Vel_Izq</title>
<path fill="none" stroke="green" stroke-width="0.14" stroke-dasharray="1,5" d="M300.38,-104.87C303.96,-96.39 309.69,-82.84 315.2,-69.78"/>
<polygon fill="green" stroke="green" stroke-width="0.14" points="318.4,-71.19 319.07,-60.62 311.96,-68.47 318.4,-71.19"/>
</g>
<!-- IR_ll&#45;&gt;Vel_Der -->
<g id="edge10" class="edge">
<title>IR_ll&#45;&gt;Vel_Der</title>
<path fill="none" stroke="green" stroke-width="0.12" d="M290.1,-104.87C282.88,-95.5 270.89,-79.93 259.92,-65.68"/>
<polygon fill="green" stroke="green" stroke-width="0.12" points="262.95,-63.88 254.07,-58.1 257.4,-68.15 262.95,-63.88"/>
</g>
<!-- IR_l -->
<g id="node6" class="node">
<title>IR_l</title>
<polygon fill="lightgray" stroke="black" points="363.61,-123.74 331.86,-123.74 331.86,-105.24 363.61,-105.24 363.61,-123.74"/>
<text xml:space="preserve" text-anchor="middle" x="347.74" y="-111.19" font-family="Times New Roman,serif" font-size="9.00">IR_l</text>
</g>
<!-- IR_l&#45;&gt;Vel_Izq -->
<g id="edge11" class="edge">
<title>IR_l&#45;&gt;Vel_Izq</title>
<path fill="none" stroke="green" stroke-width="0.12" d="M345.92,-104.87C344.23,-96.87 341.59,-84.37 338.98,-72.02"/>
<polygon fill="green" stroke="green" stroke-width="0.12" points="342.44,-71.48 336.95,-62.42 335.59,-72.92 342.44,-71.48"/>
</g>
<!-- IR_l&#45;&gt;Vel_Der -->
<g id="edge12" class="edge">
<title>IR_l&#45;&gt;Vel_Der</title>
<path fill="none" stroke="red" stroke-width="0.11" stroke-dasharray="1,5" d="M335.65,-104.87C319.72,-93.53 291.09,-73.14 268.38,-56.96"/>
<polygon fill="red" stroke="red" stroke-width="0.11" points="270.63,-54.27 260.46,-51.32 266.57,-59.97 270.63,-54.27"/>
</g>
<!-- IR_rr -->
<g id="node7" class="node">
<title>IR_rr</title>
<polygon fill="lightgray" stroke="black" points="417.49,-123.74 381.99,-123.74 381.99,-105.24 417.49,-105.24 417.49,-123.74"/>
<text xml:space="preserve" text-anchor="middle" x="399.74" y="-111.19" font-family="Times New Roman,serif" font-size="9.00">IR_rr</text>
</g>
<!-- IR_rr&#45;&gt;Vel_Izq -->
<g id="edge13" class="edge">
<title>IR_rr&#45;&gt;Vel_Izq</title>
<path fill="none" stroke="green" stroke-width="0.16" d="M392.35,-104.87C383.89,-95 369.53,-78.25 356.81,-63.41"/>
<polygon fill="green" stroke="green" stroke-width="0.16" points="359.67,-61.36 350.5,-56.05 354.35,-65.92 359.67,-61.36"/>
</g>
<!-- IR_rr&#45;&gt;Vel_Der -->
<g id="edge14" class="edge">
<title>IR_rr&#45;&gt;Vel_Der</title>
<path fill="none" stroke="green" stroke-width="0.14" d="M382.66,-104.8C379.38,-103.18 375.96,-101.51 372.74,-99.99 337.11,-83.18 327.07,-81.42 291.74,-63.99 285.07,-60.7 278.05,-57.05 271.31,-53.44"/>
<polygon fill="green" stroke="green" stroke-width="0.14" points="272.98,-50.37 262.52,-48.68 269.65,-56.52 272.98,-50.37"/>
</g>
<!-- IR_r -->
<g id="node8" class="node">
<title>IR_r</title>
<polygon fill="lightgray" stroke="black" points="467.99,-123.74 435.49,-123.74 435.49,-105.24 467.99,-105.24 467.99,-123.74"/>
<text xml:space="preserve" text-anchor="middle" x="451.74" y="-111.19" font-family="Times New Roman,serif" font-size="9.00">IR_r</text>
</g>
<!-- IR_r&#45;&gt;Vel_Izq -->
<g id="edge15" class="edge">
<title>IR_r&#45;&gt;Vel_Izq</title>
<path fill="none" stroke="red" stroke-width="0.13" d="M438.79,-104.87C421.12,-93.12 388.83,-71.64 364.14,-55.21"/>
<polygon fill="red" stroke="red" stroke-width="0.13" points="366.18,-52.37 355.92,-49.75 362.31,-58.2 366.18,-52.37"/>
</g>
<!-- IR_r&#45;&gt;Vel_Der -->
<g id="edge16" class="edge">
<title>IR_r&#45;&gt;Vel_Der</title>
<path fill="none" stroke="red" stroke-width="0.13" d="M436.94,-104.77C433.65,-103.04 430.13,-101.34 426.74,-99.99 369.02,-77.09 349.42,-86.99 291.74,-63.99 284.68,-61.18 277.37,-57.69 270.45,-54.08"/>
<polygon fill="red" stroke="red" stroke-width="0.13" points="272.57,-51.25 262.1,-49.59 269.25,-57.41 272.57,-51.25"/>
</g>
<!-- Tamano -->
<g id="node9" class="node">
<title>Tamano</title>
<polygon fill="lightgray" stroke="black" points="64.61,-123.74 20.86,-123.74 20.86,-105.24 64.61,-105.24 64.61,-123.74"/>
<text xml:space="preserve" text-anchor="middle" x="42.74" y="-111.19" font-family="Times New Roman,serif" font-size="9.00">Tamano</text>
</g>
<!-- Tamano&#45;&gt;Vel_Izq -->
<g id="edge17" class="edge">
<title>Tamano&#45;&gt;Vel_Izq</title>
<path fill="none" stroke="red" stroke-width="0.12" d="M60.83,-104.77C65,-103 69.47,-101.28 73.74,-99.99 161.03,-73.61 189.91,-94.82 275.74,-63.99 282.92,-61.41 290.26,-57.95 297.15,-54.26"/>
<polygon fill="red" stroke="red" stroke-width="0.12" points="298.41,-57.57 305.42,-49.62 294.99,-51.46 298.41,-57.57"/>
</g>
<!-- Tamano&#45;&gt;Vel_Der -->
<g id="edge18" class="edge">
<title>Tamano&#45;&gt;Vel_Der</title>
<path fill="none" stroke="green" stroke-width="0.13" d="M62.4,-104.87C66.16,-103.24 70.07,-101.56 73.74,-99.99 115.44,-82.24 163.44,-62.34 196.1,-48.87"/>
<polygon fill="green" stroke="green" stroke-width="0.13" points="197.21,-52.2 205.12,-45.15 194.54,-45.73 197.21,-52.2"/>
</g>
<!-- 4&#45;&gt;Vel_Izq -->
<g id="edge20" class="edge">
<title>4&#45;&gt;Vel_Izq</title>
<path fill="none" stroke="green" stroke-width="0.11" d="M525.03,-107.06C520.27,-104.74 514.8,-102.16 509.74,-99.99 461.84,-79.54 405.38,-58.98 368.87,-46.13"/>
<polygon fill="green" stroke="green" stroke-width="0.11" points="370.34,-42.94 359.74,-42.94 368.02,-49.54 370.34,-42.94"/>
</g>
</g>
</svg>
