<?xml version="1.0" encoding="UTF-8" standalone="no"?>
<!DOCTYPE svg PUBLIC "-//W3C//DTD SVG 1.1//EN"
 "http://www.w3.org/Graphics/SVG/1.1/DTD/svg11.dtd">
<!-- Generated by graphviz version 14.0.2 (20251019.1705)
 -->
<!-- Pages: 1 -->
<svg width="519pt" height="126pt"
 viewBox="0.00 0.00 519.00 126.00" xmlns="http://www.w3.org/2000/svg" xmlns:xlink="http://www.w3.org/1999/xlink">
<g id="graph0" class="graph" transform="scale(1 1) rotate(0) translate(4 122.49)">
<polygon fill="white" stroke="none" points="-4,4 -4,-122.49 515.38,-122.49 515.38,4 -4,4"/>
<!-- Blob_X -->
<g id="node1" class="node">
<title>Blob_X</title>
<polygon fill="lightgray" stroke="black" points="448.38,-118.49 403.88,-118.49 403.88,-99.99 448.38,-99.99 448.38,-118.49"/>
<text xml:space="preserve" text-anchor="middle" x="426.12" y="-105.94" font-family="Times New Roman,serif" font-size="9.00">Blob_X</text>
</g>
<!-- Vel_Izq -->
<g id="node10" class="node">
<title>Vel_Izq</title>
<ellipse fill="lightblue" stroke="black" cx="204.12" cy="-32" rx="30.41" ry="30.41"/>
<text xml:space="preserve" text-anchor="middle" x="204.12" y="-28.7" font-family="Times New Roman,serif" font-size="9.00">Vel_Izq</text>
</g>
<!-- Blob_X&#45;&gt;Vel_Izq -->
<g id="edge1" class="edge">
<title>Blob_X&#45;&gt;Vel_Izq</title>
<path fill="none" stroke="red" stroke-width="0.11" d="M403.46,-102.13C400.65,-101.4 397.83,-100.67 395.12,-99.99 327.8,-83.06 305.58,-94.32 243.12,-63.99 240.17,-62.56 237.23,-60.87 234.37,-59.02"/>
<polygon fill="red" stroke="red" stroke-width="0.11" points="236.4,-56.17 226.22,-53.26 232.36,-61.89 236.4,-56.17"/>
</g>
<!-- Vel_Der -->
<g id="node11" class="node">
<title>Vel_Der</title>
<ellipse fill="lightblue" stroke="black" cx="284.12" cy="-32" rx="32" ry="32"/>
<text xml:space="preserve" text-anchor="middle" x="284.12" y="-28.7" font-family="Times New Roman,serif" font-size="9.00">Vel_Der</text>
</g>
<!-- Blob_X&#45;&gt;Vel_Der -->
<g id="edge2" class="edge">
<title>Blob_X&#45;&gt;Vel_Der</title>
<path fill="none" stroke="red" stroke-width="0.11" d="M409.84,-99.61C388.34,-88.22 349.87,-67.83 321.13,-52.6"/>
<polygon fill="red" stroke="red" stroke-width="0.11" points="322.79,-49.53 312.32,-47.94 319.51,-55.71 322.79,-49.53"/>
</g>
<!-- Blob_Y -->
<g id="node2" class="node">
<title>Blob_Y</title>
<polygon fill="lightgray" stroke="black" points="511.38,-118.49 466.88,-118.49 466.88,-99.99 511.38,-99.99 511.38,-118.49"/>
<text xml:space="preserve" text-anchor="middle" x="489.12" y="-105.94" font-family="Times New Roman,serif" font-size="9.00">Blob_Y</text>
</g>
<!-- Blob_Y&#45;&gt;Vel_Der -->
<g id="edge3" class="edge">
<title>Blob_Y&#45;&gt;Vel_Der</title>
<path fill="none" stroke="red" stroke-width="0.12" d="M466.4,-99.9C431.97,-87.27 366.11,-63.09 323.7,-47.52"/>
<polygon fill="red" stroke="red" stroke-width="0.12" points="325,-44.27 314.41,-44.11 322.59,-50.84 325,-44.27"/>
</g>
<!-- IR_delante -->
<g id="node3" class="node">
<title>IR_delante</title>
<polygon fill="lightgray" stroke="black" points="54.25,-118.49 0,-118.49 0,-99.99 54.25,-99.99 54.25,-118.49"/>
<text xml:space="preserve" text-anchor="middle" x="27.12" y="-105.94" font-family="Times New Roman,serif" font-size="9.00">IR_delante</text>
</g>
<!-- IR_delante&#45;&gt;Vel_Izq -->
<g id="edge4" class="edge">
<title>IR_delante&#45;&gt;Vel_Izq</title>
<path fill="none" stroke="green" stroke-width="0.13" stroke-dasharray="1,5" d="M47.43,-99.61C76.52,-87.24 130.56,-64.27 166.93,-48.81"/>
<polygon fill="green" stroke="green" stroke-width="0.13" points="168.22,-52.06 176.05,-44.93 165.48,-45.62 168.22,-52.06"/>
</g>
<!-- IR_delante&#45;&gt;Vel_Der -->
<g id="edge5" class="edge">
<title>IR_delante&#45;&gt;Vel_Der</title>
<path fill="none" stroke="green" stroke-width="0.16" d="M54.62,-101.86C57.49,-101.22 60.37,-100.58 63.12,-99.99 142.89,-82.88 168.71,-97.44 243.12,-63.99 246.14,-62.64 249.13,-61.03 252.06,-59.27"/>
<polygon fill="green" stroke="green" stroke-width="0.16" points="253.96,-62.21 260.35,-53.75 250.08,-56.38 253.96,-62.21"/>
</g>
<!-- IR_atras -->
<g id="node4" class="node">
<title>IR_atras</title>
<polygon fill="lightgray" stroke="black" points="118.12,-118.49 72.12,-118.49 72.12,-99.99 118.12,-99.99 118.12,-118.49"/>
<text xml:space="preserve" text-anchor="middle" x="95.12" y="-105.94" font-family="Times New Roman,serif" font-size="9.00">IR_atras</text>
</g>
<!-- IR_atras&#45;&gt;Vel_Izq -->
<g id="edge6" class="edge">
<title>IR_atras&#45;&gt;Vel_Izq</title>
<path fill="none" stroke="green" stroke-width="0.13" d="M107.63,-99.61C123.03,-88.98 149.79,-70.51 171.23,-55.71"/>
<polygon fill="green" stroke="green" stroke-width="0.13" points="173.04,-58.71 179.28,-50.15 169.06,-52.95 173.04,-58.71"/>
</g>
<!-- IR_atras&#45;&gt;Vel_Der -->
<g id="edge7" class="edge">
<title>IR_atras&#45;&gt;Vel_Der</title>
<path fill="none" stroke="green" stroke-width="0.15" d="M118.52,-101.74C157.33,-90.88 231.88,-69.69 243.12,-63.99 245.99,-62.54 248.86,-60.88 251.68,-59.11"/>
<polygon fill="green" stroke="green" stroke-width="0.15" points="253.42,-62.16 259.72,-53.65 249.48,-56.37 253.42,-62.16"/>
</g>
<!-- IR_ll -->
<g id="node5" class="node">
<title>IR_ll</title>
<polygon fill="lightgray" stroke="black" points="170.12,-118.49 136.12,-118.49 136.12,-99.99 170.12,-99.99 170.12,-118.49"/>
<text xml:space="preserve" text-anchor="middle" x="153.12" y="-105.94" font-family="Times New Roman,serif" font-size="9.00">IR_ll</text>
</g>
<!-- IR_ll&#45;&gt;Vel_Izq -->
<g id="edge8" class="edge">
<title>IR_ll&#45;&gt;Vel_Izq</title>
<path fill="none" stroke="green" stroke-width="0.22" d="M158.98,-99.61C164.59,-91.33 173.42,-78.3 181.79,-65.95"/>
<polygon fill="green" stroke="green" stroke-width="0.22" points="184.57,-68.09 187.28,-57.85 178.78,-64.16 184.57,-68.09"/>
</g>
<!-- IR_ll&#45;&gt;Vel_Der -->
<g id="edge9" class="edge">
<title>IR_ll&#45;&gt;Vel_Der</title>
<path fill="none" stroke="green" stroke-width="0.11" stroke-dasharray="1,5" d="M170.56,-100.86C189.08,-92.75 218.96,-78.88 243.12,-63.99 245.86,-62.31 248.64,-60.48 251.39,-58.59"/>
<polygon fill="green" stroke="green" stroke-width="0.11" points="253.27,-61.55 259.37,-52.89 249.2,-55.86 253.27,-61.55"/>
</g>
<!-- IR_l -->
<g id="node6" class="node">
<title>IR_l</title>
<polygon fill="lightgray" stroke="black" points="220,-118.49 188.25,-118.49 188.25,-99.99 220,-99.99 220,-118.49"/>
<text xml:space="preserve" text-anchor="middle" x="204.12" y="-105.94" font-family="Times New Roman,serif" font-size="9.00">IR_l</text>
</g>
<!-- IR_l&#45;&gt;Vel_Izq -->
<g id="edge10" class="edge">
<title>IR_l&#45;&gt;Vel_Izq</title>
<path fill="none" stroke="green" stroke-width="0.14" d="M204.12,-99.61C204.12,-92.84 204.12,-82.88 204.12,-72.72"/>
<polygon fill="green" stroke="green" stroke-width="0.14" points="207.63,-72.81 204.13,-62.81 200.63,-72.81 207.63,-72.81"/>
</g>
<!-- IR_l&#45;&gt;Vel_Der -->
<g id="edge11" class="edge">
<title>IR_l&#45;&gt;Vel_Der</title>
<path fill="none" stroke="green" stroke-width="0.1" d="M213.3,-99.61C223.16,-90.34 239.35,-75.11 253.76,-61.55"/>
<polygon fill="green" stroke="green" stroke-width="0.1" points="256.1,-64.16 260.98,-54.76 251.3,-59.07 256.1,-64.16"/>
</g>
<!-- IR_rr -->
<g id="node7" class="node">
<title>IR_rr</title>
<polygon fill="lightgray" stroke="black" points="273.88,-118.49 238.38,-118.49 238.38,-99.99 273.88,-99.99 273.88,-118.49"/>
<text xml:space="preserve" text-anchor="middle" x="256.12" y="-105.94" font-family="Times New Roman,serif" font-size="9.00">IR_rr</text>
</g>
<!-- IR_rr&#45;&gt;Vel_Izq -->
<g id="edge12" class="edge">
<title>IR_rr&#45;&gt;Vel_Izq</title>
<path fill="none" stroke="green" stroke-width="0.16" d="M250.16,-99.61C244.44,-91.33 235.43,-78.3 226.89,-65.95"/>
<polygon fill="green" stroke="green" stroke-width="0.16" points="229.81,-64.01 221.24,-57.77 224.05,-67.99 229.81,-64.01"/>
</g>
<!-- IR_rr&#45;&gt;Vel_Der -->
<g id="edge13" class="edge">
<title>IR_rr&#45;&gt;Vel_Der</title>
<path fill="none" stroke="red" stroke-width="0.15" d="M259.34,-99.61C261.93,-92.64 265.78,-82.29 269.68,-71.82"/>
<polygon fill="red" stroke="red" stroke-width="0.15" points="272.95,-73.06 273.16,-62.46 266.39,-70.62 272.95,-73.06"/>
</g>
<!-- IR_r -->
<g id="node8" class="node">
<title>IR_r</title>
<polygon fill="lightgray" stroke="black" points="324.38,-118.49 291.88,-118.49 291.88,-99.99 324.38,-99.99 324.38,-118.49"/>
<text xml:space="preserve" text-anchor="middle" x="308.12" y="-105.94" font-family="Times New Roman,serif" font-size="9.00">IR_r</text>
</g>
<!-- IR_r&#45;&gt;Vel_Izq -->
<g id="edge14" class="edge">
<title>IR_r&#45;&gt;Vel_Izq</title>
<path fill="none" stroke="red" stroke-width="0.11" d="M294.73,-99.54C281.45,-90.82 260.6,-76.86 243.12,-63.99 240.55,-62.1 237.9,-60.1 235.26,-58.07"/>
<polygon fill="red" stroke="red" stroke-width="0.11" points="237.59,-55.45 227.55,-52.07 233.29,-60.98 237.59,-55.45"/>
</g>
<!-- IR_r&#45;&gt;Vel_Der -->
<g id="edge15" class="edge">
<title>IR_r&#45;&gt;Vel_Der</title>
<path fill="none" stroke="green" stroke-width="0.12" d="M305.37,-99.61C303.18,-92.75 299.96,-82.64 296.68,-72.35"/>
<polygon fill="green" stroke="green" stroke-width="0.12" points="300.1,-71.57 293.73,-63.11 293.43,-73.7 300.1,-71.57"/>
</g>
<!-- Tamano -->
<g id="node9" class="node">
<title>Tamano</title>
<polygon fill="lightgray" stroke="black" points="386,-118.49 342.25,-118.49 342.25,-99.99 386,-99.99 386,-118.49"/>
<text xml:space="preserve" text-anchor="middle" x="364.12" y="-105.94" font-family="Times New Roman,serif" font-size="9.00">Tamano</text>
</g>
<!-- Tamano&#45;&gt;Vel_Izq -->
<g id="edge16" class="edge">
<title>Tamano&#45;&gt;Vel_Izq</title>
<path fill="none" stroke="green" stroke-width="0.3" stroke-dasharray="1,5" d="M341.78,-102.42C316.77,-95.37 275.51,-82.15 243.12,-63.99 240.42,-62.48 237.71,-60.78 235.05,-58.98"/>
<polygon fill="green" stroke="green" stroke-width="0.3" points="237.29,-56.28 227.13,-53.24 233.18,-61.94 237.29,-56.28"/>
</g>
<!-- Tamano&#45;&gt;Vel_Der -->
<g id="edge17" class="edge">
<title>Tamano&#45;&gt;Vel_Der</title>
<path fill="none" stroke="red" stroke-width="0.12" stroke-dasharray="1,5" d="M354.95,-99.61C345.09,-90.34 328.9,-75.11 314.49,-61.55"/>
<polygon fill="red" stroke="red" stroke-width="0.12" points="316.97,-59.08 307.29,-54.78 312.17,-64.18 316.97,-59.08"/>
</g>
</g>
</svg>
