<?xml version="1.0" encoding="UTF-8" standalone="no"?>
<!DOCTYPE svg PUBLIC "-//W3C//DTD SVG 1.1//EN"
 "http://www.w3.org/Graphics/SVG/1.1/DTD/svg11.dtd">
<!-- Generated by graphviz version 14.0.2 (20251019.1705)
 -->
<!-- Pages: 1 -->
<svg width="582pt" height="199pt"
 viewBox="0.00 0.00 582.00 199.00" xmlns="http://www.w3.org/2000/svg" xmlns:xlink="http://www.w3.org/1999/xlink">
<g id="graph0" class="graph" transform="scale(1 1) rotate(0) translate(4 194.91)">
<polygon fill="white" stroke="none" points="-4,4 -4,-194.91 577.7,-194.91 577.7,4 -4,4"/>
<!-- Blob_X -->
<g id="node1" class="node">
<title>Blob_X</title>
<polygon fill="lightgray" stroke="black" points="97.93,-127.98 53.43,-127.98 53.43,-109.48 97.93,-109.48 97.93,-127.98"/>
<text xml:space="preserve" text-anchor="middle" x="75.68" y="-115.43" font-family="Times,serif" font-size="9.00">Blob_X</text>
</g>
<!-- Vel_Izq -->
<g id="node10" class="node">
<title>Vel_Izq</title>
<ellipse fill="lightblue" stroke="black" cx="261.68" cy="-32.53" rx="30.94" ry="30.94"/>
<text xml:space="preserve" text-anchor="middle" x="261.68" y="-29.23" font-family="Times,serif" font-size="9.00">Vel_Izq</text>
</g>
<!-- Blob_X&#45;&gt;Vel_Izq -->
<g id="edge1" class="edge">
<title>Blob_X&#45;&gt;Vel_Izq</title>
<path fill="none" stroke="green" stroke-width="0.1" d="M94.34,-109.04C99.92,-106.46 106.04,-103.63 111.68,-101.05 150.05,-83.53 194.08,-63.74 224.47,-50.14"/>
<polygon fill="green" stroke="green" stroke-width="0.1" points="225.59,-53.47 233.29,-46.2 222.74,-47.08 225.59,-53.47"/>
</g>
<!-- Blob_Y -->
<g id="node2" class="node">
<title>Blob_Y</title>
<polygon fill="lightgray" stroke="black" points="365.93,-127.98 321.43,-127.98 321.43,-109.48 365.93,-109.48 365.93,-127.98"/>
<text xml:space="preserve" text-anchor="middle" x="343.68" y="-115.43" font-family="Times,serif" font-size="9.00">Blob_Y</text>
</g>
<!-- Blob_Y&#45;&gt;Vel_Izq -->
<g id="edge2" class="edge">
<title>Blob_Y&#45;&gt;Vel_Izq</title>
<path fill="none" stroke="green" stroke-width="0.15" stroke-dasharray="1,5" d="M335.21,-109.04C324.64,-98.18 306,-79.04 290.14,-62.76"/>
<polygon fill="green" stroke="green" stroke-width="0.15" points="292.73,-60.4 283.25,-55.68 287.72,-65.29 292.73,-60.4"/>
</g>
<!-- Vel_Der -->
<g id="node11" class="node">
<title>Vel_Der</title>
<ellipse fill="lightblue" stroke="black" cx="361.68" cy="-32.53" rx="32.53" ry="32.53"/>
<text xml:space="preserve" text-anchor="middle" x="361.68" y="-29.23" font-family="Times,serif" font-size="9.00">Vel_Der</text>
</g>
<!-- Blob_Y&#45;&gt;Vel_Der -->
<g id="edge3" class="edge">
<title>Blob_Y&#45;&gt;Vel_Der</title>
<path fill="none" stroke="red" stroke-width="0.18" d="M345.54,-109.04C347.31,-100.73 350.12,-87.59 352.9,-74.58"/>
<polygon fill="red" stroke="red" stroke-width="0.18" points="356.28,-75.52 354.95,-65.01 349.44,-74.05 356.28,-75.52"/>
</g>
<!-- IR_delante -->
<g id="node3" class="node">
<title>IR_delante</title>
<polygon fill="lightgray" stroke="black" points="437.8,-127.98 383.55,-127.98 383.55,-109.48 437.8,-109.48 437.8,-127.98"/>
<text xml:space="preserve" text-anchor="middle" x="410.68" y="-115.43" font-family="Times,serif" font-size="9.00">IR_delante</text>
</g>
<!-- IR_delante&#45;&gt;Vel_Izq -->
<g id="edge4" class="edge">
<title>IR_delante&#45;&gt;Vel_Izq</title>
<path fill="none" stroke="red" stroke-width="0.14" d="M395.29,-109.04C372.35,-96.07 328.54,-71.31 297.34,-53.68"/>
<polygon fill="red" stroke="red" stroke-width="0.14" points="299.11,-50.66 288.68,-48.79 295.66,-56.75 299.11,-50.66"/>
</g>
<!-- IR_delante&#45;&gt;Vel_Der -->
<g id="edge5" class="edge">
<title>IR_delante&#45;&gt;Vel_Der</title>
<path fill="none" stroke="red" stroke-width="0.1" d="M405.62,-109.04C400.14,-99.62 391.04,-83.99 382.54,-69.38"/>
<polygon fill="red" stroke="red" stroke-width="0.1" points="385.77,-67.97 377.72,-61.09 379.72,-71.5 385.77,-67.97"/>
</g>
<!-- IR_atras -->
<g id="node4" class="node">
<title>IR_atras</title>
<polygon fill="lightgray" stroke="black" points="501.68,-127.98 455.68,-127.98 455.68,-109.48 501.68,-109.48 501.68,-127.98"/>
<text xml:space="preserve" text-anchor="middle" x="478.68" y="-115.43" font-family="Times,serif" font-size="9.00">IR_atras</text>
</g>
<!-- IR_atras&#45;&gt;Vel_Izq -->
<g id="edge6" class="edge">
<title>IR_atras&#45;&gt;Vel_Izq</title>
<path fill="none" stroke="green" stroke-width="0.12" stroke-dasharray="1,5" d="M463.68,-109.11C458.41,-106.3 452.38,-103.32 446.68,-101.05 392.16,-79.38 374.01,-87.2 319.68,-65.05 311.97,-61.91 303.97,-58.02 296.47,-54.05"/>
<polygon fill="green" stroke="green" stroke-width="0.12" points="298.55,-51.2 288.09,-49.49 295.2,-57.34 298.55,-51.2"/>
</g>
<!-- IR_atras&#45;&gt;Vel_Der -->
<g id="edge7" class="edge">
<title>IR_atras&#45;&gt;Vel_Der</title>
<path fill="none" stroke="red" stroke-width="0.1" d="M466.6,-109.04C450.09,-97.16 419.83,-75.38 396.04,-58.25"/>
<polygon fill="red" stroke="red" stroke-width="0.1" points="398.21,-55.51 388.05,-52.5 394.12,-61.19 398.21,-55.51"/>
</g>
<!-- IR_ll -->
<g id="node5" class="node">
<title>IR_ll</title>
<polygon fill="lightgray" stroke="black" points="553.68,-127.98 519.68,-127.98 519.68,-109.48 553.68,-109.48 553.68,-127.98"/>
<text xml:space="preserve" text-anchor="middle" x="536.68" y="-115.43" font-family="Times,serif" font-size="9.00">IR_ll</text>
</g>
<!-- IR_ll&#45;&gt;Vel_Izq -->
<g id="edge8" class="edge">
<title>IR_ll&#45;&gt;Vel_Izq</title>
<path fill="none" stroke="red" stroke-width="0.1" d="M525.29,-109.08C520.92,-106.13 515.76,-103.07 510.68,-101.05 430.4,-69.15 401.06,-94.03 319.68,-65.05 311.84,-62.26 303.78,-58.52 296.26,-54.59"/>
<polygon fill="red" stroke="red" stroke-width="0.1" points="298.32,-51.72 287.86,-50.01 294.97,-57.87 298.32,-51.72"/>
</g>
<!-- IR_ll&#45;&gt;Vel_Der -->
<g id="edge9" class="edge">
<title>IR_ll&#45;&gt;Vel_Der</title>
<path fill="none" stroke="red" stroke-width="0.12" stroke-dasharray="1,5" d="M523.94,-109.04C519.79,-106.35 515.11,-103.46 510.68,-101.05 474.38,-81.32 431.23,-62.22 400.73,-49.39"/>
<polygon fill="red" stroke="red" stroke-width="0.12" points="402.44,-46.31 391.86,-45.69 399.74,-52.77 402.44,-46.31"/>
</g>
<!-- IR_l -->
<g id="node6" class="node">
<title>IR_l</title>
<polygon fill="lightgray" stroke="black" points="141.55,-190.91 109.8,-190.91 109.8,-172.41 141.55,-172.41 141.55,-190.91"/>
<text xml:space="preserve" text-anchor="middle" x="125.68" y="-178.36" font-family="Times,serif" font-size="9.00">IR_l</text>
</g>
<!-- IR_l&#45;&gt;Vel_Izq -->
<g id="edge10" class="edge">
<title>IR_l&#45;&gt;Vel_Izq</title>
<path fill="none" stroke="red" stroke-width="0.12" stroke-dasharray="1,5" d="M125.59,-172.08C125.86,-156.41 128.45,-122.81 144.68,-101.05 164.16,-74.93 196.96,-57.28 222.88,-46.59"/>
<polygon fill="red" stroke="red" stroke-width="0.12" points="223.89,-49.95 231.91,-43.03 221.32,-43.44 223.89,-49.95"/>
</g>
<!-- IR_l&#45;&gt;Vel_Der -->
<g id="edge11" class="edge">
<title>IR_l&#45;&gt;Vel_Der</title>
<path fill="none" stroke="red" stroke-width="0.12" d="M141.83,-180.28C217.44,-178.32 533.88,-168.27 562.68,-136.41 612.83,-80.93 476.6,-51 403.94,-39.35"/>
<polygon fill="red" stroke="red" stroke-width="0.12" points="404.73,-35.94 394.31,-37.86 403.65,-42.85 404.73,-35.94"/>
</g>
<!-- 29 -->
<g id="node12" class="node">
<title>29</title>
<ellipse fill="white" stroke="black" cx="17.68" cy="-118.73" rx="17.68" ry="17.68"/>
<text xml:space="preserve" text-anchor="middle" x="17.68" y="-115.43" font-family="Times,serif" font-size="9.00">29</text>
</g>
<!-- IR_l&#45;&gt;29 -->
<g id="edge18" class="edge">
<title>IR_l&#45;&gt;29</title>
<path fill="none" stroke="green" stroke-width="0.11" d="M109.4,-172.09C92.94,-163.36 66.84,-149.3 44.68,-136.41 43.43,-135.68 42.15,-134.93 40.86,-134.16"/>
<polygon fill="green" stroke="green" stroke-width="0.11" points="42.95,-131.34 32.59,-129.14 39.32,-137.32 42.95,-131.34"/>
</g>
<!-- IR_rr -->
<g id="node7" class="node">
<title>IR_rr</title>
<polygon fill="lightgray" stroke="black" points="189.43,-127.98 153.93,-127.98 153.93,-109.48 189.43,-109.48 189.43,-127.98"/>
<text xml:space="preserve" text-anchor="middle" x="171.68" y="-115.43" font-family="Times,serif" font-size="9.00">IR_rr</text>
</g>
<!-- IR_rr&#45;&gt;Vel_Izq -->
<g id="edge12" class="edge">
<title>IR_rr&#45;&gt;Vel_Izq</title>
<path fill="none" stroke="green" stroke-width="0.18" stroke-dasharray="1,5" d="M180.97,-109.04C192.92,-97.86 214.23,-77.92 231.96,-61.33"/>
<polygon fill="green" stroke="green" stroke-width="0.18" points="234.19,-64.04 239.1,-54.65 229.41,-58.92 234.19,-64.04"/>
</g>
<!-- IR_rr&#45;&gt;Vel_Der -->
<g id="edge13" class="edge">
<title>IR_rr&#45;&gt;Vel_Der</title>
<path fill="none" stroke="red" stroke-width="0.13" d="M184.54,-109C188.91,-106.24 193.9,-103.33 198.68,-101.05 242.45,-80.19 257.2,-84.38 301.68,-65.05 309.28,-61.75 317.24,-57.88 324.79,-54"/>
<polygon fill="red" stroke="red" stroke-width="0.13" points="326.01,-57.31 333.24,-49.57 322.76,-51.11 326.01,-57.31"/>
</g>
<!-- IR_r -->
<g id="node8" class="node">
<title>IR_r</title>
<polygon fill="lightgray" stroke="black" points="239.93,-127.98 207.43,-127.98 207.43,-109.48 239.93,-109.48 239.93,-127.98"/>
<text xml:space="preserve" text-anchor="middle" x="223.68" y="-115.43" font-family="Times,serif" font-size="9.00">IR_r</text>
</g>
<!-- IR_r&#45;&gt;Vel_Izq -->
<g id="edge14" class="edge">
<title>IR_r&#45;&gt;Vel_Izq</title>
<path fill="none" stroke="green" stroke-width="0.15" d="M227.6,-109.04C231.74,-99.87 238.54,-84.8 244.98,-70.53"/>
<polygon fill="green" stroke="green" stroke-width="0.15" points="248.11,-72.1 249.03,-61.54 241.73,-69.22 248.11,-72.1"/>
</g>
<!-- IR_r&#45;&gt;Vel_Der -->
<g id="edge15" class="edge">
<title>IR_r&#45;&gt;Vel_Der</title>
<path fill="none" stroke="green" stroke-width="0.11" d="M237.13,-109C241.15,-106.42 245.58,-103.6 249.68,-101.05 274.76,-85.45 303.27,-68.27 325.24,-55.15"/>
<polygon fill="green" stroke="green" stroke-width="0.11" points="326.99,-58.18 333.79,-50.05 323.41,-52.16 326.99,-58.18"/>
</g>
<!-- Tamano -->
<g id="node9" class="node">
<title>Tamano</title>
<polygon fill="lightgray" stroke="black" points="302.93,-127.98 258.43,-127.98 258.43,-109.48 302.93,-109.48 302.93,-127.98"/>
<text xml:space="preserve" text-anchor="middle" x="280.68" y="-115.43" font-family="Times,serif" font-size="9.00">Tamano</text>
</g>
<!-- Tamano&#45;&gt;Vel_Izq -->
<g id="edge16" class="edge">
<title>Tamano&#45;&gt;Vel_Izq</title>
<path fill="none" stroke="green" stroke-width="0.19" stroke-dasharray="1,5" d="M278.72,-109.04C276.76,-100.38 273.62,-86.47 270.57,-72.93"/>
<polygon fill="green" stroke="green" stroke-width="0.19" points="274.05,-72.48 268.44,-63.49 267.23,-74.02 274.05,-72.48"/>
</g>
<!-- Tamano&#45;&gt;Vel_Der -->
<g id="edge17" class="edge">
<title>Tamano&#45;&gt;Vel_Der</title>
<path fill="none" stroke="red" stroke-width="0.11" stroke-dasharray="1,5" d="M289.04,-109.04C299.28,-98.4 317.15,-79.81 332.61,-63.74"/>
<polygon fill="red" stroke="red" stroke-width="0.11" points="334.98,-66.32 339.4,-56.69 329.94,-61.47 334.98,-66.32"/>
</g>
<!-- 29&#45;&gt;Vel_Izq -->
<g id="edge19" class="edge">
<title>29&#45;&gt;Vel_Izq</title>
<path fill="none" stroke="red" stroke-width="0.1" stroke-dasharray="1,5" d="M32.16,-107.86C36.11,-105.43 40.47,-102.97 44.68,-101.05 103.97,-74.04 177.06,-53.78 221.48,-42.8"/>
<polygon fill="red" stroke="red" stroke-width="0.1" points="222.28,-46.21 231.16,-40.44 220.62,-39.41 222.28,-46.21"/>
</g>
</g>
</svg>
