<?xml version="1.0" encoding="UTF-8" standalone="no"?>
<!DOCTYPE svg PUBLIC "-//W3C//DTD SVG 1.1//EN"
 "http://www.w3.org/Graphics/SVG/1.1/DTD/svg11.dtd">
<!-- Generated by graphviz version 14.0.2 (20251019.1705)
 -->
<!-- Pages: 1 -->
<svg width="611pt" height="126pt"
 viewBox="0.00 0.00 611.00 126.00" xmlns="http://www.w3.org/2000/svg" xmlns:xlink="http://www.w3.org/1999/xlink">
<g id="graph0" class="graph" transform="scale(1 1) rotate(0) translate(4 122.49)">
<polygon fill="white" stroke="none" points="-4,4 -4,-122.49 606.62,-122.49 606.62,4 -4,4"/>
<!-- Blob_X -->
<g id="node1" class="node">
<title>Blob_X</title>
<polygon fill="lightgray" stroke="black" points="302,-118.49 257.5,-118.49 257.5,-99.99 302,-99.99 302,-118.49"/>
<text xml:space="preserve" text-anchor="middle" x="279.75" y="-105.94" font-family="Times New Roman,serif" font-size="9.00">Blob_X</text>
</g>
<!-- Vel_Izq -->
<g id="node12" class="node">
<title>Vel_Izq</title>
<ellipse fill="lightblue" stroke="black" cx="243.75" cy="-32" rx="30.41" ry="30.41"/>
<text xml:space="preserve" text-anchor="middle" x="243.75" y="-28.7" font-family="Times New Roman,serif" font-size="9.00">Vel_Izq</text>
</g>
<!-- Blob_X&#45;&gt;Vel_Izq -->
<g id="edge1" class="edge">
<title>Blob_X&#45;&gt;Vel_Izq</title>
<path fill="none" stroke="red" stroke-width="0.11" d="M275.62,-99.61C271.98,-92 266.41,-80.36 260.94,-68.93"/>
<polygon fill="red" stroke="red" stroke-width="0.11" points="264.16,-67.55 256.69,-60.04 257.85,-70.57 264.16,-67.55"/>
</g>
<!-- Vel_Der -->
<g id="node13" class="node">
<title>Vel_Der</title>
<ellipse fill="lightblue" stroke="black" cx="323.75" cy="-32" rx="32" ry="32"/>
<text xml:space="preserve" text-anchor="middle" x="323.75" y="-28.7" font-family="Times New Roman,serif" font-size="9.00">Vel_Der</text>
</g>
<!-- Blob_X&#45;&gt;Vel_Der -->
<g id="edge2" class="edge">
<title>Blob_X&#45;&gt;Vel_Der</title>
<path fill="none" stroke="green" stroke-width="0.12" d="M284.8,-99.61C289.26,-91.98 296.08,-80.32 302.77,-68.87"/>
<polygon fill="green" stroke="green" stroke-width="0.12" points="305.71,-70.78 307.74,-60.38 299.67,-67.25 305.71,-70.78"/>
</g>
<!-- Blob_Y -->
<g id="node2" class="node">
<title>Blob_Y</title>
<polygon fill="lightgray" stroke="black" points="365,-118.49 320.5,-118.49 320.5,-99.99 365,-99.99 365,-118.49"/>
<text xml:space="preserve" text-anchor="middle" x="342.75" y="-105.94" font-family="Times New Roman,serif" font-size="9.00">Blob_Y</text>
</g>
<!-- Blob_Y&#45;&gt;Vel_Izq -->
<g id="edge3" class="edge">
<title>Blob_Y&#45;&gt;Vel_Izq</title>
<path fill="none" stroke="red" stroke-width="0.12" d="M330.7,-99.55C318.52,-90.72 299.19,-76.58 282.75,-63.99 280.21,-62.05 277.59,-60.02 274.96,-57.97"/>
<polygon fill="red" stroke="red" stroke-width="0.12" points="277.32,-55.37 267.3,-51.93 272.99,-60.87 277.32,-55.37"/>
</g>
<!-- Blob_Y&#45;&gt;Vel_Der -->
<g id="edge4" class="edge">
<title>Blob_Y&#45;&gt;Vel_Der</title>
<path fill="none" stroke="green" stroke-width="0.12" d="M340.57,-99.61C338.87,-92.88 336.38,-83.02 333.83,-72.93"/>
<polygon fill="green" stroke="green" stroke-width="0.12" points="337.28,-72.3 331.44,-63.46 330.5,-74.01 337.28,-72.3"/>
</g>
<!-- IR_delante -->
<g id="node3" class="node">
<title>IR_delante</title>
<polygon fill="lightgray" stroke="black" points="436.88,-118.49 382.62,-118.49 382.62,-99.99 436.88,-99.99 436.88,-118.49"/>
<text xml:space="preserve" text-anchor="middle" x="409.75" y="-105.94" font-family="Times New Roman,serif" font-size="9.00">IR_delante</text>
</g>
<!-- IR_delante&#45;&gt;Vel_Izq -->
<g id="edge5" class="edge">
<title>IR_delante&#45;&gt;Vel_Izq</title>
<path fill="none" stroke="green" stroke-width="0.12" d="M382.37,-101.58C355.87,-94.47 315.06,-81.79 282.75,-63.99 279.95,-62.45 277.14,-60.7 274.39,-58.85"/>
<polygon fill="green" stroke="green" stroke-width="0.12" points="276.66,-56.17 266.51,-53.15 272.56,-61.84 276.66,-56.17"/>
</g>
<!-- IR_delante&#45;&gt;Vel_Der -->
<g id="edge6" class="edge">
<title>IR_delante&#45;&gt;Vel_Der</title>
<path fill="none" stroke="green" stroke-width="0.13" d="M399.88,-99.61C388.97,-90.06 370.81,-74.17 354.97,-60.31"/>
<polygon fill="green" stroke="green" stroke-width="0.13" points="357.39,-57.78 347.56,-53.83 352.78,-63.05 357.39,-57.78"/>
</g>
<!-- IR_atras -->
<g id="node4" class="node">
<title>IR_atras</title>
<polygon fill="lightgray" stroke="black" points="500.75,-118.49 454.75,-118.49 454.75,-99.99 500.75,-99.99 500.75,-118.49"/>
<text xml:space="preserve" text-anchor="middle" x="477.75" y="-105.94" font-family="Times New Roman,serif" font-size="9.00">IR_atras</text>
</g>
<!-- IR_atras&#45;&gt;Vel_Izq -->
<g id="edge7" class="edge">
<title>IR_atras&#45;&gt;Vel_Izq</title>
<path fill="none" stroke="green" stroke-width="0.13" d="M454.35,-102.11C451.46,-101.38 448.54,-100.66 445.75,-99.99 373.6,-82.73 349.73,-95.89 282.75,-63.99 279.78,-62.58 276.84,-60.9 273.97,-59.07"/>
<polygon fill="green" stroke="green" stroke-width="0.13" points="276.02,-56.24 265.83,-53.34 271.99,-61.96 276.02,-56.24"/>
</g>
<!-- IR_atras&#45;&gt;Vel_Der -->
<g id="edge8" class="edge">
<title>IR_atras&#45;&gt;Vel_Der</title>
<path fill="none" stroke="red" stroke-width="0.1" d="M460.08,-99.61C436.14,-87.91 392.77,-66.72 361.36,-51.37"/>
<polygon fill="red" stroke="red" stroke-width="0.1" points="363.11,-48.33 352.58,-47.09 360.03,-54.62 363.11,-48.33"/>
</g>
<!-- IR_ll -->
<g id="node5" class="node">
<title>IR_ll</title>
<polygon fill="lightgray" stroke="black" points="552.75,-118.49 518.75,-118.49 518.75,-99.99 552.75,-99.99 552.75,-118.49"/>
<text xml:space="preserve" text-anchor="middle" x="535.75" y="-105.94" font-family="Times New Roman,serif" font-size="9.00">IR_ll</text>
</g>
<!-- IR_ll&#45;&gt;Vel_Izq -->
<g id="edge9" class="edge">
<title>IR_ll&#45;&gt;Vel_Izq</title>
<path fill="none" stroke="red" stroke-width="0.11" d="M518.51,-102.37C515.61,-101.5 512.61,-100.67 509.75,-99.99 410.34,-76.48 376.25,-105.12 282.75,-63.99 279.74,-62.67 276.77,-61.06 273.88,-59.27"/>
<polygon fill="red" stroke="red" stroke-width="0.11" points="275.91,-56.41 265.7,-53.59 271.92,-62.17 275.91,-56.41"/>
</g>
<!-- IR_ll&#45;&gt;Vel_Der -->
<g id="edge10" class="edge">
<title>IR_ll&#45;&gt;Vel_Der</title>
<path fill="none" stroke="red" stroke-width="0.1" d="M518.4,-102.09C484.7,-90.12 409.64,-63.48 363.2,-47"/>
<polygon fill="red" stroke="red" stroke-width="0.1" points="364.49,-43.74 353.89,-43.69 362.14,-50.34 364.49,-43.74"/>
</g>
<!-- IR_l -->
<g id="node6" class="node">
<title>IR_l</title>
<polygon fill="lightgray" stroke="black" points="602.62,-118.49 570.88,-118.49 570.88,-99.99 602.62,-99.99 602.62,-118.49"/>
<text xml:space="preserve" text-anchor="middle" x="586.75" y="-105.94" font-family="Times New Roman,serif" font-size="9.00">IR_l</text>
</g>
<!-- IR_l&#45;&gt;Vel_Izq -->
<g id="edge11" class="edge">
<title>IR_l&#45;&gt;Vel_Izq</title>
<path fill="none" stroke="green" stroke-width="0.1" d="M570.47,-102.38C567.59,-101.48 564.6,-100.64 561.75,-99.99 439.83,-72.28 397.91,-112.67 282.75,-63.99 279.72,-62.71 276.73,-61.13 273.84,-59.36"/>
<polygon fill="green" stroke="green" stroke-width="0.1" points="275.85,-56.5 265.63,-53.71 271.88,-62.26 275.85,-56.5"/>
</g>
<!-- IR_l&#45;&gt;Vel_Der -->
<g id="edge12" class="edge">
<title>IR_l&#45;&gt;Vel_Der</title>
<path fill="none" stroke="green" stroke-width="0.11" d="M570.38,-102.72C567.51,-101.79 564.55,-100.85 561.75,-99.99 492.76,-78.91 411.79,-56.64 364.3,-43.82"/>
<polygon fill="green" stroke="green" stroke-width="0.11" points="365.41,-40.5 354.85,-41.28 363.59,-47.26 365.41,-40.5"/>
</g>
<!-- IR_rr -->
<g id="node7" class="node">
<title>IR_rr</title>
<polygon fill="lightgray" stroke="black" points="35.5,-118.49 0,-118.49 0,-99.99 35.5,-99.99 35.5,-118.49"/>
<text xml:space="preserve" text-anchor="middle" x="17.75" y="-105.94" font-family="Times New Roman,serif" font-size="9.00">IR_rr</text>
</g>
<!-- IR_rr&#45;&gt;Vel_Izq -->
<g id="edge13" class="edge">
<title>IR_rr&#45;&gt;Vel_Izq</title>
<path fill="none" stroke="green" stroke-width="0.11" d="M35.86,-102.21C72.49,-90.02 156.06,-62.19 205.36,-45.78"/>
<polygon fill="green" stroke="green" stroke-width="0.11" points="206.2,-49.19 214.58,-42.71 203.99,-42.55 206.2,-49.19"/>
</g>
<!-- IR_rr&#45;&gt;Vel_Der -->
<g id="edge14" class="edge">
<title>IR_rr&#45;&gt;Vel_Der</title>
<path fill="none" stroke="green" stroke-width="0.11" d="M35.95,-102.29C38.88,-101.44 41.88,-100.64 44.75,-99.99 149.07,-76.3 184.16,-105.53 282.75,-63.99 285.89,-62.67 289,-61.05 292.03,-59.26"/>
<polygon fill="green" stroke="green" stroke-width="0.11" points="293.71,-62.35 300.13,-53.92 289.86,-56.5 293.71,-62.35"/>
</g>
<!-- IR_r -->
<g id="node8" class="node">
<title>IR_r</title>
<polygon fill="lightgray" stroke="black" points="86,-118.49 53.5,-118.49 53.5,-99.99 86,-99.99 86,-118.49"/>
<text xml:space="preserve" text-anchor="middle" x="69.75" y="-105.94" font-family="Times New Roman,serif" font-size="9.00">IR_r</text>
</g>
<!-- IR_r&#45;&gt;Vel_Izq -->
<g id="edge15" class="edge">
<title>IR_r&#45;&gt;Vel_Izq</title>
<path fill="none" stroke="red" stroke-width="0.1" d="M86.43,-101.03C114.04,-89.09 169.84,-64.96 207.01,-48.88"/>
<polygon fill="red" stroke="red" stroke-width="0.1" points="208.1,-52.23 215.89,-45.04 205.33,-45.8 208.1,-52.23"/>
</g>
<!-- IR_r&#45;&gt;Vel_Der -->
<g id="edge16" class="edge">
<title>IR_r&#45;&gt;Vel_Der</title>
<path fill="none" stroke="red" stroke-width="0.14" d="M86.34,-102.44C89.13,-101.56 92.01,-100.71 94.75,-99.99 177.09,-78.62 205.01,-98.55 282.75,-63.99 285.77,-62.65 288.77,-61.05 291.7,-59.29"/>
<polygon fill="red" stroke="red" stroke-width="0.14" points="293.63,-62.21 300.02,-53.77 289.76,-56.38 293.63,-62.21"/>
</g>
<!-- Tamano -->
<g id="node9" class="node">
<title>Tamano</title>
<polygon fill="lightgray" stroke="black" points="147.62,-118.49 103.88,-118.49 103.88,-99.99 147.62,-99.99 147.62,-118.49"/>
<text xml:space="preserve" text-anchor="middle" x="125.75" y="-105.94" font-family="Times New Roman,serif" font-size="9.00">Tamano</text>
</g>
<!-- Tamano&#45;&gt;Vel_Izq -->
<g id="edge17" class="edge">
<title>Tamano&#45;&gt;Vel_Izq</title>
<path fill="none" stroke="red" stroke-width="0.1" d="M139.29,-99.61C156.43,-88.68 186.57,-69.46 210.09,-54.46"/>
<polygon fill="red" stroke="red" stroke-width="0.1" points="211.74,-57.56 218.29,-49.24 207.97,-51.66 211.74,-57.56"/>
</g>
<!-- Tamano&#45;&gt;Vel_Der -->
<g id="edge18" class="edge">
<title>Tamano&#45;&gt;Vel_Der</title>
<path fill="none" stroke="red" stroke-width="0.1" d="M147.83,-102.25C189.61,-90.88 276.6,-67.05 282.75,-63.99 285.63,-62.56 288.51,-60.92 291.33,-59.16"/>
<polygon fill="red" stroke="red" stroke-width="0.1" points="293.12,-62.17 299.45,-53.67 289.2,-56.37 293.12,-62.17"/>
</g>
<!-- &#45;10 -->
<g id="node10" class="node">
<title>&#45;10</title>
<polygon fill="lightgray" stroke="black" points="193.75,-118.49 165.75,-118.49 165.75,-99.99 193.75,-99.99 193.75,-118.49"/>
<text xml:space="preserve" text-anchor="middle" x="179.75" y="-105.94" font-family="Times New Roman,serif" font-size="9.00">&#45;10</text>
</g>
<!-- &#45;10&#45;&gt;Vel_Izq -->
<g id="edge19" class="edge">
<title>&#45;10&#45;&gt;Vel_Izq</title>
<path fill="none" stroke="green" stroke-width="0.13" d="M187.09,-99.61C194.61,-90.77 206.74,-76.51 217.85,-63.44"/>
<polygon fill="green" stroke="green" stroke-width="0.13" points="220.3,-65.97 224.11,-56.09 214.96,-61.44 220.3,-65.97"/>
</g>
<!-- &#45;10&#45;&gt;Vel_Der -->
<g id="edge20" class="edge">
<title>&#45;10&#45;&gt;Vel_Der</title>
<path fill="none" stroke="green" stroke-width="0.13" d="M193.96,-102.64C218.29,-92.95 266.85,-73.24 282.75,-63.99 285.53,-62.38 288.33,-60.61 291.11,-58.75"/>
<polygon fill="green" stroke="green" stroke-width="0.13" points="292.94,-61.74 299.1,-53.13 288.91,-56.02 292.94,-61.74"/>
</g>
<!-- &#45;11 -->
<g id="node11" class="node">
<title>&#45;11</title>
<polygon fill="lightgray" stroke="black" points="239.75,-118.49 211.75,-118.49 211.75,-99.99 239.75,-99.99 239.75,-118.49"/>
<text xml:space="preserve" text-anchor="middle" x="225.75" y="-105.94" font-family="Times New Roman,serif" font-size="9.00">&#45;11</text>
</g>
<!-- &#45;11&#45;&gt;Vel_Izq -->
<g id="edge21" class="edge">
<title>&#45;11&#45;&gt;Vel_Izq</title>
<path fill="none" stroke="green" stroke-width="0.1" d="M227.81,-99.61C229.5,-92.58 232,-82.11 234.53,-71.55"/>
<polygon fill="green" stroke="green" stroke-width="0.1" points="237.87,-72.61 236.8,-62.07 231.07,-70.98 237.87,-72.61"/>
</g>
<!-- &#45;11&#45;&gt;Vel_Der -->
<g id="edge22" class="edge">
<title>&#45;11&#45;&gt;Vel_Der</title>
<path fill="none" stroke="green" stroke-width="0.1" d="M236.99,-99.61C250.04,-89.59 272.16,-72.61 290.8,-58.3"/>
<polygon fill="green" stroke="green" stroke-width="0.1" points="292.88,-61.11 298.68,-52.25 288.61,-55.56 292.88,-61.11"/>
</g>
</g>
</svg>
