<?xml version="1.0" encoding="UTF-8" standalone="no"?>
<!DOCTYPE svg PUBLIC "-//W3C//DTD SVG 1.1//EN"
 "http://www.w3.org/Graphics/SVG/1.1/DTD/svg11.dtd">
<!-- Generated by graphviz version 14.0.2 (20251019.1705)
 -->
<!-- Pages: 1 -->
<svg width="560pt" height="198pt"
 viewBox="0.00 0.00 560.00 198.00" xmlns="http://www.w3.org/2000/svg" xmlns:xlink="http://www.w3.org/1999/xlink">
<g id="graph0" class="graph" transform="scale(1 1) rotate(0) translate(4 193.85)">
<polygon fill="white" stroke="none" points="-4,4 -4,-193.85 555.55,-193.85 555.55,4 -4,4"/>
<!-- Blob_X -->
<g id="node1" class="node">
<title>Blob_X</title>
<polygon fill="lightgray" stroke="black" points="460.12,-126.92 415.62,-126.92 415.62,-108.42 460.12,-108.42 460.12,-126.92"/>
<text xml:space="preserve" text-anchor="middle" x="437.88" y="-114.37" font-family="Times New Roman,serif" font-size="9.00">Blob_X</text>
</g>
<!-- Vel_Izq -->
<g id="node10" class="node">
<title>Vel_Izq</title>
<ellipse fill="lightblue" stroke="black" cx="222.88" cy="-32" rx="30.41" ry="30.41"/>
<text xml:space="preserve" text-anchor="middle" x="222.88" y="-28.7" font-family="Times New Roman,serif" font-size="9.00">Vel_Izq</text>
</g>
<!-- Blob_X&#45;&gt;Vel_Izq -->
<g id="edge1" class="edge">
<title>Blob_X&#45;&gt;Vel_Izq</title>
<path fill="none" stroke="green" stroke-width="0.13" d="M423.38,-108C418.28,-105.19 412.43,-102.23 406.88,-99.99 351.24,-77.65 332.2,-87.1 276.88,-63.99 270.22,-61.22 263.37,-57.78 256.88,-54.22"/>
<polygon fill="green" stroke="green" stroke-width="0.13" points="258.89,-51.34 248.46,-49.44 255.43,-57.42 258.89,-51.34"/>
</g>
<!-- Vel_Der -->
<g id="node11" class="node">
<title>Vel_Der</title>
<ellipse fill="lightblue" stroke="black" cx="317.88" cy="-32" rx="32" ry="32"/>
<text xml:space="preserve" text-anchor="middle" x="317.88" y="-28.7" font-family="Times New Roman,serif" font-size="9.00">Vel_Der</text>
</g>
<!-- Blob_X&#45;&gt;Vel_Der -->
<g id="edge2" class="edge">
<title>Blob_X&#45;&gt;Vel_Der</title>
<path fill="none" stroke="red" stroke-width="0.11" d="M425.48,-108.03C408.27,-96.03 376.46,-73.84 351.87,-56.7"/>
<polygon fill="red" stroke="red" stroke-width="0.11" points="354.19,-54.05 343.98,-51.2 350.18,-59.79 354.19,-54.05"/>
</g>
<!-- Blob_Y -->
<g id="node2" class="node">
<title>Blob_Y</title>
<polygon fill="lightgray" stroke="black" points="94.12,-126.92 49.62,-126.92 49.62,-108.42 94.12,-108.42 94.12,-126.92"/>
<text xml:space="preserve" text-anchor="middle" x="71.88" y="-114.37" font-family="Times New Roman,serif" font-size="9.00">Blob_Y</text>
</g>
<!-- Blob_Y&#45;&gt;Vel_Izq -->
<g id="edge3" class="edge">
<title>Blob_Y&#45;&gt;Vel_Izq</title>
<path fill="none" stroke="green" stroke-width="0.1" d="M87.47,-108.03C111.02,-94.98 156.29,-69.89 187.98,-52.33"/>
<polygon fill="green" stroke="green" stroke-width="0.1" points="189.34,-55.58 196.39,-47.67 185.95,-49.46 189.34,-55.58"/>
</g>
<!-- Blob_Y&#45;&gt;Vel_Der -->
<g id="edge4" class="edge">
<title>Blob_Y&#45;&gt;Vel_Der</title>
<path fill="none" stroke="red" stroke-width="0.14" d="M86,-108.03C91.17,-105.15 97.15,-102.14 102.88,-99.99 170.73,-74.6 194.17,-89.79 261.88,-63.99 268.66,-61.41 275.62,-58.13 282.24,-54.67"/>
<polygon fill="red" stroke="red" stroke-width="0.14" points="283.7,-57.86 290.81,-50 280.35,-51.71 283.7,-57.86"/>
</g>
<!-- IR_delante -->
<g id="node3" class="node">
<title>IR_delante</title>
<polygon fill="lightgray" stroke="black" points="166,-126.92 111.75,-126.92 111.75,-108.42 166,-108.42 166,-126.92"/>
<text xml:space="preserve" text-anchor="middle" x="138.88" y="-114.37" font-family="Times New Roman,serif" font-size="9.00">IR_delante</text>
</g>
<!-- IR_delante&#45;&gt;Vel_Izq -->
<g id="edge5" class="edge">
<title>IR_delante&#45;&gt;Vel_Izq</title>
<path fill="none" stroke="green" stroke-width="0.13" d="M147.55,-108.03C158.62,-97 178.33,-77.37 194.81,-60.95"/>
<polygon fill="green" stroke="green" stroke-width="0.13" points="196.89,-63.82 201.5,-54.29 191.95,-58.86 196.89,-63.82"/>
</g>
<!-- IR_delante&#45;&gt;Vel_Der -->
<g id="edge6" class="edge">
<title>IR_delante&#45;&gt;Vel_Der</title>
<path fill="none" stroke="red" stroke-width="0.1" d="M157.12,-108.04C162.79,-105.41 169.07,-102.54 174.88,-99.99 213.2,-83.19 224.18,-82.15 261.88,-63.99 268.34,-60.88 275.12,-57.36 281.63,-53.84"/>
<polygon fill="red" stroke="red" stroke-width="0.1" points="283.07,-57.04 290.15,-49.15 279.7,-50.9 283.07,-57.04"/>
</g>
<!-- IR_atras -->
<g id="node4" class="node">
<title>IR_atras</title>
<polygon fill="lightgray" stroke="black" points="229.88,-126.92 183.88,-126.92 183.88,-108.42 229.88,-108.42 229.88,-126.92"/>
<text xml:space="preserve" text-anchor="middle" x="206.88" y="-114.37" font-family="Times New Roman,serif" font-size="9.00">IR_atras</text>
</g>
<!-- IR_atras&#45;&gt;Vel_Izq -->
<g id="edge7" class="edge">
<title>IR_atras&#45;&gt;Vel_Izq</title>
<path fill="none" stroke="red" stroke-width="0.13" stroke-dasharray="1,5" d="M208.53,-108.03C210.18,-99.36 212.86,-85.39 215.45,-71.83"/>
<polygon fill="red" stroke="red" stroke-width="0.13" points="218.83,-72.8 217.27,-62.32 211.95,-71.48 218.83,-72.8"/>
</g>
<!-- IR_atras&#45;&gt;Vel_Der -->
<g id="edge8" class="edge">
<title>IR_atras&#45;&gt;Vel_Der</title>
<path fill="none" stroke="green" stroke-width="0.16" d="M218.34,-108.03C233.83,-96.35 262.09,-75.05 284.55,-58.11"/>
<polygon fill="green" stroke="green" stroke-width="0.16" points="286.46,-61.06 292.34,-52.25 282.25,-55.47 286.46,-61.06"/>
</g>
<!-- IR_ll -->
<g id="node5" class="node">
<title>IR_ll</title>
<polygon fill="lightgray" stroke="black" points="281.88,-126.92 247.88,-126.92 247.88,-108.42 281.88,-108.42 281.88,-126.92"/>
<text xml:space="preserve" text-anchor="middle" x="264.88" y="-114.37" font-family="Times New Roman,serif" font-size="9.00">IR_ll</text>
</g>
<!-- IR_ll&#45;&gt;Vel_Izq -->
<g id="edge9" class="edge">
<title>IR_ll&#45;&gt;Vel_Izq</title>
<path fill="none" stroke="red" stroke-width="0.1" d="M260.54,-108.03C255.82,-98.63 247.96,-82.97 240.64,-68.39"/>
<polygon fill="red" stroke="red" stroke-width="0.1" points="243.87,-67.02 236.25,-59.65 237.61,-70.16 243.87,-67.02"/>
</g>
<!-- IR_ll&#45;&gt;Vel_Der -->
<g id="edge10" class="edge">
<title>IR_ll&#45;&gt;Vel_Der</title>
<path fill="none" stroke="green" stroke-width="0.15" d="M270.35,-108.03C276.36,-98.54 286.41,-82.68 295.72,-67.98"/>
<polygon fill="green" stroke="green" stroke-width="0.15" points="298.57,-70.02 300.96,-59.7 292.65,-66.28 298.57,-70.02"/>
</g>
<!-- IR_l -->
<g id="node6" class="node">
<title>IR_l</title>
<polygon fill="lightgray" stroke="black" points="31.75,-126.92 0,-126.92 0,-108.42 31.75,-108.42 31.75,-126.92"/>
<text xml:space="preserve" text-anchor="middle" x="15.88" y="-114.37" font-family="Times New Roman,serif" font-size="9.00">IR_l</text>
</g>
<!-- IR_l&#45;&gt;Vel_Izq -->
<g id="edge11" class="edge">
<title>IR_l&#45;&gt;Vel_Izq</title>
<path fill="none" stroke="green" stroke-width="0.18" d="M27.73,-107.93C31.78,-105.18 36.41,-102.26 40.88,-99.99 88.26,-75.89 146.43,-56.04 184.05,-44.36"/>
<polygon fill="green" stroke="green" stroke-width="0.18" points="184.83,-47.78 193.36,-41.5 182.78,-41.08 184.83,-47.78"/>
</g>
<!-- IR_rr -->
<g id="node7" class="node">
<title>IR_rr</title>
<polygon fill="lightgray" stroke="black" points="335.62,-126.92 300.12,-126.92 300.12,-108.42 335.62,-108.42 335.62,-126.92"/>
<text xml:space="preserve" text-anchor="middle" x="317.88" y="-114.37" font-family="Times New Roman,serif" font-size="9.00">IR_rr</text>
</g>
<!-- IR_rr&#45;&gt;Vel_Izq -->
<g id="edge12" class="edge">
<title>IR_rr&#45;&gt;Vel_Izq</title>
<path fill="none" stroke="green" stroke-width="0.11" stroke-dasharray="1,5" d="M308.07,-108.03C295.15,-96.65 271.86,-76.14 252.89,-59.43"/>
<polygon fill="green" stroke="green" stroke-width="0.11" points="255.27,-56.87 245.45,-52.88 250.64,-62.12 255.27,-56.87"/>
</g>
<!-- IR_rr&#45;&gt;Vel_Der -->
<g id="edge13" class="edge">
<title>IR_rr&#45;&gt;Vel_Der</title>
<path fill="none" stroke="green" stroke-width="0.11" d="M317.88,-108.03C317.88,-99.93 317.88,-87.18 317.88,-74.48"/>
<polygon fill="green" stroke="green" stroke-width="0.11" points="321.38,-74.55 317.88,-64.55 314.38,-74.55 321.38,-74.55"/>
</g>
<!-- IR_r -->
<g id="node8" class="node">
<title>IR_r</title>
<polygon fill="lightgray" stroke="black" points="527.12,-189.85 494.62,-189.85 494.62,-171.35 527.12,-171.35 527.12,-189.85"/>
<text xml:space="preserve" text-anchor="middle" x="510.88" y="-177.3" font-family="Times New Roman,serif" font-size="9.00">IR_r</text>
</g>
<!-- IR_r&#45;&gt;Vel_Der -->
<g id="edge14" class="edge">
<title>IR_r&#45;&gt;Vel_Der</title>
<path fill="none" stroke="green" stroke-width="0.1" stroke-dasharray="1,5" d="M508.42,-171C503.46,-155.01 490.8,-120.48 468.88,-99.99 437.59,-70.77 391.46,-52.85 358.42,-42.98"/>
<polygon fill="green" stroke="green" stroke-width="0.1" points="359.78,-39.73 349.2,-40.34 357.85,-46.46 359.78,-39.73"/>
</g>
<!-- 29 -->
<g id="node12" class="node">
<title>29</title>
<ellipse fill="white" stroke="black" cx="533.88" cy="-117.67" rx="17.68" ry="17.68"/>
<text xml:space="preserve" text-anchor="middle" x="533.88" y="-114.37" font-family="Times New Roman,serif" font-size="9.00">29</text>
</g>
<!-- IR_r&#45;&gt;29 -->
<g id="edge17" class="edge">
<title>IR_r&#45;&gt;29</title>
<path fill="none" stroke="green" stroke-width="0.3" d="M514.17,-170.87C516.83,-163.84 520.7,-153.58 524.31,-144.01"/>
<polygon fill="green" stroke="green" stroke-width="0.3" points="527.5,-145.48 527.75,-134.89 520.95,-143 527.5,-145.48"/>
</g>
<!-- Tamano -->
<g id="node9" class="node">
<title>Tamano</title>
<polygon fill="lightgray" stroke="black" points="397.75,-126.92 354,-126.92 354,-108.42 397.75,-108.42 397.75,-126.92"/>
<text xml:space="preserve" text-anchor="middle" x="375.88" y="-114.37" font-family="Times New Roman,serif" font-size="9.00">Tamano</text>
</g>
<!-- Tamano&#45;&gt;Vel_Izq -->
<g id="edge15" class="edge">
<title>Tamano&#45;&gt;Vel_Izq</title>
<path fill="none" stroke="green" stroke-width="0.1" d="M359.8,-107.99C355,-105.41 349.73,-102.58 344.88,-99.99 314.71,-83.89 306.82,-80.51 276.88,-63.99 270.56,-60.51 263.87,-56.74 257.43,-53.07"/>
<polygon fill="green" stroke="green" stroke-width="0.1" points="259.42,-50.17 249,-48.23 255.94,-56.24 259.42,-50.17"/>
</g>
<!-- Tamano&#45;&gt;Vel_Der -->
<g id="edge16" class="edge">
<title>Tamano&#45;&gt;Vel_Der</title>
<path fill="none" stroke="green" stroke-width="0.12" d="M369.89,-108.03C363.15,-98.31 351.78,-81.91 341.39,-66.91"/>
<polygon fill="green" stroke="green" stroke-width="0.12" points="344.43,-65.16 335.85,-58.93 338.67,-69.14 344.43,-65.16"/>
</g>
<!-- 29&#45;&gt;Vel_Der -->
<g id="edge18" class="edge">
<title>29&#45;&gt;Vel_Der</title>
<path fill="none" stroke="green" stroke-width="0.11" d="M518.45,-108.11C513.26,-105.37 507.38,-102.42 501.88,-99.99 453.32,-78.61 395.59,-58.4 357.91,-45.88"/>
<polygon fill="green" stroke="green" stroke-width="0.11" points="359.07,-42.58 348.47,-42.77 356.87,-49.22 359.07,-42.58"/>
</g>
</g>
</svg>
