<?xml version="1.0" encoding="UTF-8" standalone="no"?>
<!DOCTYPE svg PUBLIC "-//W3C//DTD SVG 1.1//EN"
 "http://www.w3.org/Graphics/SVG/1.1/DTD/svg11.dtd">
<!-- Generated by graphviz version 14.0.2 (20251019.1705)
 -->
<!-- Pages: 1 -->
<svg width="570pt" height="191pt"
 viewBox="0.00 0.00 570.00 191.00" xmlns="http://www.w3.org/2000/svg" xmlns:xlink="http://www.w3.org/1999/xlink">
<g id="graph0" class="graph" transform="scale(1 1) rotate(0) translate(4 187.48)">
<polygon fill="white" stroke="none" points="-4,4 -4,-187.48 566.25,-187.48 566.25,4 -4,4"/>
<!-- Blob_X -->
<g id="node1" class="node">
<title>Blob_X</title>
<polygon fill="lightgray" stroke="black" points="127.01,-123.74 82.51,-123.74 82.51,-105.24 127.01,-105.24 127.01,-123.74"/>
<text xml:space="preserve" text-anchor="middle" x="104.76" y="-111.19" font-family="Times New Roman,serif" font-size="9.00">Blob_X</text>
</g>
<!-- Vel_Izq -->
<g id="node10" class="node">
<title>Vel_Izq</title>
<ellipse fill="lightblue" stroke="black" cx="337.76" cy="-32" rx="30.41" ry="30.41"/>
<text xml:space="preserve" text-anchor="middle" x="337.76" y="-28.7" font-family="Times New Roman,serif" font-size="9.00">Vel_Izq</text>
</g>
<!-- Blob_X&#45;&gt;Vel_Izq -->
<g id="edge1" class="edge">
<title>Blob_X&#45;&gt;Vel_Izq</title>
<path fill="none" stroke="green" stroke-width="0.11" d="M124.22,-104.75C128.32,-103.06 132.65,-101.38 136.76,-99.99 197.21,-79.54 216,-86.39 275.76,-63.99 284.61,-60.68 293.87,-56.47 302.46,-52.24"/>
<polygon fill="green" stroke="green" stroke-width="0.11" points="303.97,-55.4 311.31,-47.76 300.81,-49.16 303.97,-55.4"/>
</g>
<!-- Vel_Der -->
<g id="node11" class="node">
<title>Vel_Der</title>
<ellipse fill="lightblue" stroke="black" cx="234.76" cy="-32" rx="32" ry="32"/>
<text xml:space="preserve" text-anchor="middle" x="234.76" y="-28.7" font-family="Times New Roman,serif" font-size="9.00">Vel_Der</text>
</g>
<!-- Blob_X&#45;&gt;Vel_Der -->
<g id="edge2" class="edge">
<title>Blob_X&#45;&gt;Vel_Der</title>
<path fill="none" stroke="red" stroke-width="0.12" d="M118.67,-104.87C137.68,-93.11 172.43,-71.59 198.98,-55.15"/>
<polygon fill="red" stroke="red" stroke-width="0.12" points="200.81,-58.13 207.47,-49.89 197.13,-52.18 200.81,-58.13"/>
</g>
<!-- Blob_Y -->
<g id="node2" class="node">
<title>Blob_Y</title>
<polygon fill="lightgray" stroke="black" points="190.01,-123.74 145.51,-123.74 145.51,-105.24 190.01,-105.24 190.01,-123.74"/>
<text xml:space="preserve" text-anchor="middle" x="167.76" y="-111.19" font-family="Times New Roman,serif" font-size="9.00">Blob_Y</text>
</g>
<!-- Blob_Y&#45;&gt;Vel_Izq -->
<g id="edge3" class="edge">
<title>Blob_Y&#45;&gt;Vel_Izq</title>
<path fill="none" stroke="green" stroke-width="0.11" d="M187.36,-104.75C209.07,-95.01 245.07,-78.69 275.76,-63.99 284.21,-59.95 293.25,-55.49 301.75,-51.26"/>
<polygon fill="green" stroke="green" stroke-width="0.11" points="303.17,-54.46 310.55,-46.85 300.04,-48.2 303.17,-54.46"/>
</g>
<!-- Blob_Y&#45;&gt;Vel_Der -->
<g id="edge4" class="edge">
<title>Blob_Y&#45;&gt;Vel_Der</title>
<path fill="none" stroke="green" stroke-width="0.11" d="M174.93,-104.87C182.85,-95.36 196.07,-79.48 208.07,-65.06"/>
<polygon fill="green" stroke="green" stroke-width="0.11" points="210.76,-67.3 214.47,-57.38 205.38,-62.82 210.76,-67.3"/>
</g>
<!-- IR_delante -->
<g id="node3" class="node">
<title>IR_delante</title>
<polygon fill="lightgray" stroke="black" points="261.88,-123.74 207.63,-123.74 207.63,-105.24 261.88,-105.24 261.88,-123.74"/>
<text xml:space="preserve" text-anchor="middle" x="234.76" y="-111.19" font-family="Times New Roman,serif" font-size="9.00">IR_delante</text>
</g>
<!-- IR_delante&#45;&gt;Vel_Izq -->
<g id="edge5" class="edge">
<title>IR_delante&#45;&gt;Vel_Izq</title>
<path fill="none" stroke="green" stroke-width="0.15" d="M245.78,-104.87C260.08,-93.7 285.61,-73.75 306.15,-57.7"/>
<polygon fill="green" stroke="green" stroke-width="0.15" points="308.12,-60.6 313.85,-51.68 303.81,-55.08 308.12,-60.6"/>
</g>
<!-- IR_delante&#45;&gt;Vel_Der -->
<g id="edge6" class="edge">
<title>IR_delante&#45;&gt;Vel_Der</title>
<path fill="none" stroke="green" stroke-width="0.14" d="M234.76,-104.87C234.76,-97.41 234.76,-86.02 234.76,-74.5"/>
<polygon fill="green" stroke="green" stroke-width="0.14" points="238.26,-74.63 234.76,-64.63 231.26,-74.63 238.26,-74.63"/>
</g>
<!-- IR_atras -->
<g id="node4" class="node">
<title>IR_atras</title>
<polygon fill="lightgray" stroke="black" points="325.76,-123.74 279.76,-123.74 279.76,-105.24 325.76,-105.24 325.76,-123.74"/>
<text xml:space="preserve" text-anchor="middle" x="302.76" y="-111.19" font-family="Times New Roman,serif" font-size="9.00">IR_atras</text>
</g>
<!-- IR_atras&#45;&gt;Vel_Izq -->
<g id="edge7" class="edge">
<title>IR_atras&#45;&gt;Vel_Izq</title>
<path fill="none" stroke="red" stroke-width="0.12" d="M306.5,-104.87C310.23,-96.31 316.2,-82.57 321.93,-69.39"/>
<polygon fill="red" stroke="red" stroke-width="0.12" points="324.98,-71.16 325.76,-60.59 318.56,-68.37 324.98,-71.16"/>
</g>
<!-- IR_atras&#45;&gt;Vel_Der -->
<g id="edge8" class="edge">
<title>IR_atras&#45;&gt;Vel_Der</title>
<path fill="none" stroke="green" stroke-width="0.18" d="M295.48,-104.87C287.39,-95.29 273.83,-79.25 261.58,-64.75"/>
<polygon fill="green" stroke="green" stroke-width="0.18" points="264.26,-62.49 255.13,-57.11 258.91,-67.01 264.26,-62.49"/>
</g>
<!-- IR_ll -->
<g id="node5" class="node">
<title>IR_ll</title>
<polygon fill="lightgray" stroke="black" points="377.76,-123.74 343.76,-123.74 343.76,-105.24 377.76,-105.24 377.76,-123.74"/>
<text xml:space="preserve" text-anchor="middle" x="360.76" y="-111.19" font-family="Times New Roman,serif" font-size="9.00">IR_ll</text>
</g>
<!-- IR_ll&#45;&gt;Vel_Izq -->
<g id="edge9" class="edge">
<title>IR_ll&#45;&gt;Vel_Izq</title>
<path fill="none" stroke="green" stroke-width="0.12" d="M358.3,-104.87C355.95,-96.67 352.25,-83.71 348.63,-71.05"/>
<polygon fill="green" stroke="green" stroke-width="0.12" points="352.07,-70.33 345.95,-61.68 345.34,-72.25 352.07,-70.33"/>
</g>
<!-- IR_ll&#45;&gt;Vel_Der -->
<g id="edge10" class="edge">
<title>IR_ll&#45;&gt;Vel_Der</title>
<path fill="none" stroke="red" stroke-width="0.12" d="M347.27,-104.87C328.91,-93.14 295.37,-71.72 269.68,-55.3"/>
<polygon fill="red" stroke="red" stroke-width="0.12" points="271.76,-52.48 261.45,-50.05 267.99,-58.38 271.76,-52.48"/>
</g>
<!-- IR_l -->
<g id="node6" class="node">
<title>IR_l</title>
<polygon fill="lightgray" stroke="black" points="427.63,-123.74 395.88,-123.74 395.88,-105.24 427.63,-105.24 427.63,-123.74"/>
<text xml:space="preserve" text-anchor="middle" x="411.76" y="-111.19" font-family="Times New Roman,serif" font-size="9.00">IR_l</text>
</g>
<!-- IR_l&#45;&gt;Vel_Izq -->
<g id="edge11" class="edge">
<title>IR_l&#45;&gt;Vel_Izq</title>
<path fill="none" stroke="green" stroke-width="0.12" d="M403.84,-104.87C394.55,-94.77 378.64,-77.47 364.77,-62.38"/>
<polygon fill="green" stroke="green" stroke-width="0.12" points="367.62,-60.31 358.28,-55.32 362.47,-65.05 367.62,-60.31"/>
</g>
<!-- IR_l&#45;&gt;Vel_Der -->
<g id="edge12" class="edge">
<title>IR_l&#45;&gt;Vel_Der</title>
<path fill="none" stroke="green" stroke-width="0.11" stroke-dasharray="1,5" d="M396.29,-104.81C393.16,-103.15 389.88,-101.47 386.76,-99.99 348.56,-81.93 337.35,-81.21 298.76,-63.99 290.15,-60.15 280.98,-55.84 272.35,-51.69"/>
<polygon fill="green" stroke="green" stroke-width="0.11" points="273.93,-48.56 263.4,-47.34 270.87,-54.86 273.93,-48.56"/>
</g>
<!-- IR_rr -->
<g id="node7" class="node">
<title>IR_rr</title>
<polygon fill="lightgray" stroke="black" points="523.51,-183.48 488.01,-183.48 488.01,-164.98 523.51,-164.98 523.51,-183.48"/>
<text xml:space="preserve" text-anchor="middle" x="505.76" y="-170.93" font-family="Times New Roman,serif" font-size="9.00">IR_rr</text>
</g>
<!-- IR_rr&#45;&gt;Vel_Izq -->
<g id="edge13" class="edge">
<title>IR_rr&#45;&gt;Vel_Izq</title>
<path fill="none" stroke="green" stroke-width="0.16" stroke-dasharray="1,5" d="M505.83,-164.94C505.53,-150.17 502.86,-119.07 486.76,-99.99 458.87,-66.95 411.36,-49.5 377.48,-40.79"/>
<polygon fill="green" stroke="green" stroke-width="0.16" points="378.65,-37.48 368.11,-38.52 377,-44.28 378.65,-37.48"/>
</g>
<!-- IR_rr&#45;&gt;Vel_Der -->
<g id="edge14" class="edge">
<title>IR_rr&#45;&gt;Vel_Der</title>
<path fill="none" stroke="green" stroke-width="0.12" d="M487.79,-173.03C402.87,-171.85 44.52,-164.81 11.76,-128.98 -43.61,-68.43 114.18,-44.46 192.96,-36.46"/>
<polygon fill="green" stroke="green" stroke-width="0.12" points="192.82,-39.99 202.44,-35.53 192.14,-33.02 192.82,-39.99"/>
</g>
<!-- 7 -->
<g id="node12" class="node">
<title>7</title>
<ellipse fill="white" stroke="black" cx="547.76" cy="-114.49" rx="14.5" ry="14.5"/>
<text xml:space="preserve" text-anchor="middle" x="547.76" y="-111.19" font-family="Times New Roman,serif" font-size="9.00">7</text>
</g>
<!-- IR_rr&#45;&gt;7 -->
<g id="edge19" class="edge">
<title>IR_rr&#45;&gt;7</title>
<path fill="none" stroke="green" stroke-width="0.31" d="M511.96,-164.71C517.6,-156.95 526.16,-145.19 533.49,-135.11"/>
<polygon fill="green" stroke="green" stroke-width="0.31" points="536.18,-137.36 539.23,-127.21 530.52,-133.24 536.18,-137.36"/>
</g>
<!-- IR_r -->
<g id="node8" class="node">
<title>IR_r</title>
<polygon fill="lightgray" stroke="black" points="478.01,-123.74 445.51,-123.74 445.51,-105.24 478.01,-105.24 478.01,-123.74"/>
<text xml:space="preserve" text-anchor="middle" x="461.76" y="-111.19" font-family="Times New Roman,serif" font-size="9.00">IR_r</text>
</g>
<!-- IR_r&#45;&gt;Vel_Izq -->
<g id="edge15" class="edge">
<title>IR_r&#45;&gt;Vel_Izq</title>
<path fill="none" stroke="green" stroke-width="0.1" d="M448.49,-104.87C430.19,-93 396.59,-71.19 371.18,-54.69"/>
<polygon fill="green" stroke="green" stroke-width="0.1" points="373.34,-51.92 363.05,-49.41 369.53,-57.79 373.34,-51.92"/>
</g>
<!-- IR_r&#45;&gt;Vel_Der -->
<g id="edge16" class="edge">
<title>IR_r&#45;&gt;Vel_Der</title>
<path fill="none" stroke="green" stroke-width="0.1" d="M446.97,-104.75C443.68,-103.02 440.15,-101.33 436.76,-99.99 377.78,-76.77 358.23,-85.91 298.76,-63.99 289.91,-60.73 280.65,-56.66 272,-52.55"/>
<polygon fill="green" stroke="green" stroke-width="0.1" points="273.57,-49.42 263.05,-48.18 270.5,-55.71 273.57,-49.42"/>
</g>
<!-- Tamano -->
<g id="node9" class="node">
<title>Tamano</title>
<polygon fill="lightgray" stroke="black" points="64.63,-123.74 20.88,-123.74 20.88,-105.24 64.63,-105.24 64.63,-123.74"/>
<text xml:space="preserve" text-anchor="middle" x="42.76" y="-111.19" font-family="Times New Roman,serif" font-size="9.00">Tamano</text>
</g>
<!-- Tamano&#45;&gt;Vel_Izq -->
<g id="edge17" class="edge">
<title>Tamano&#45;&gt;Vel_Izq</title>
<path fill="none" stroke="red" stroke-width="0.13" d="M60.85,-104.77C65.02,-103 69.49,-101.28 73.76,-99.99 161.05,-73.61 189.19,-92.68 275.76,-63.99 284.73,-61.02 294.04,-56.95 302.63,-52.74"/>
<polygon fill="red" stroke="red" stroke-width="0.13" points="304.12,-55.91 311.44,-48.25 300.94,-49.67 304.12,-55.91"/>
</g>
<!-- Tamano&#45;&gt;Vel_Der -->
<g id="edge18" class="edge">
<title>Tamano&#45;&gt;Vel_Der</title>
<path fill="none" stroke="red" stroke-width="0.13" d="M62.42,-104.87C66.18,-103.24 70.09,-101.56 73.76,-99.99 115.46,-82.24 163.46,-62.34 196.12,-48.87"/>
<polygon fill="red" stroke="red" stroke-width="0.13" points="197.23,-52.2 205.14,-45.15 194.56,-45.72 197.23,-52.2"/>
</g>
<!-- 7&#45;&gt;Vel_Izq -->
<g id="edge20" class="edge">
<title>7&#45;&gt;Vel_Izq</title>
<path fill="none" stroke="green" stroke-width="0.13" d="M535.05,-107.05C530.3,-104.72 524.83,-102.14 519.76,-99.99 470.81,-79.25 413.01,-58.61 375.9,-45.83"/>
<polygon fill="green" stroke="green" stroke-width="0.13" points="377.25,-42.6 366.65,-42.67 374.98,-49.22 377.25,-42.6"/>
</g>
</g>
</svg>
