<?xml version="1.0" encoding="UTF-8" standalone="no"?>
<!DOCTYPE svg PUBLIC "-//W3C//DTD SVG 1.1//EN"
 "http://www.w3.org/Graphics/SVG/1.1/DTD/svg11.dtd">
<!-- Generated by graphviz version 14.0.2 (20251019.1705)
 -->
<!-- Pages: 1 -->
<svg width="558pt" height="191pt"
 viewBox="0.00 0.00 558.00 191.00" xmlns="http://www.w3.org/2000/svg" xmlns:xlink="http://www.w3.org/1999/xlink">
<g id="graph0" class="graph" transform="scale(1 1) rotate(0) translate(4 187.48)">
<polygon fill="white" stroke="none" points="-4,4 -4,-187.48 553.89,-187.48 553.89,4 -4,4"/>
<!-- Blob_X -->
<g id="node1" class="node">
<title>Blob_X</title>
<polygon fill="lightgray" stroke="black" points="494.01,-183.48 449.51,-183.48 449.51,-164.98 494.01,-164.98 494.01,-183.48"/>
<text xml:space="preserve" text-anchor="middle" x="471.76" y="-170.93" font-family="Times New Roman,serif" font-size="9.00">Blob_X</text>
</g>
<!-- Vel_Izq -->
<g id="node10" class="node">
<title>Vel_Izq</title>
<ellipse fill="lightblue" stroke="black" cx="209.76" cy="-32" rx="30.41" ry="30.41"/>
<text xml:space="preserve" text-anchor="middle" x="209.76" y="-28.7" font-family="Times New Roman,serif" font-size="9.00">Vel_Izq</text>
</g>
<!-- Blob_X&#45;&gt;Vel_Izq -->
<g id="edge1" class="edge">
<title>Blob_X&#45;&gt;Vel_Izq</title>
<path fill="none" stroke="red" stroke-width="0.11" d="M449.05,-172.8C360.31,-170.89 40.54,-161.75 10.76,-128.98 -38.71,-74.53 97.68,-47.79 169.18,-37.8"/>
<polygon fill="red" stroke="red" stroke-width="0.11" points="169.62,-41.28 179.06,-36.47 168.68,-34.34 169.62,-41.28"/>
</g>
<!-- Vel_Der -->
<g id="node11" class="node">
<title>Vel_Der</title>
<ellipse fill="lightblue" stroke="black" cx="346.76" cy="-32" rx="32" ry="32"/>
<text xml:space="preserve" text-anchor="middle" x="346.76" y="-28.7" font-family="Times New Roman,serif" font-size="9.00">Vel_Der</text>
</g>
<!-- Blob_X&#45;&gt;Vel_Der -->
<g id="edge2" class="edge">
<title>Blob_X&#45;&gt;Vel_Der</title>
<path fill="none" stroke="red" stroke-width="0.11" stroke-dasharray="1,5" d="M472.57,-164.71C473.49,-150.12 473.42,-120 459.76,-99.99 442.32,-74.44 411.63,-57.15 386.63,-46.55"/>
<polygon fill="red" stroke="red" stroke-width="0.11" points="388.1,-43.37 377.52,-42.87 385.48,-49.86 388.1,-43.37"/>
</g>
<!-- 2 -->
<g id="node12" class="node">
<title>2</title>
<ellipse fill="white" stroke="black" cx="520.76" cy="-114.49" rx="14.5" ry="14.5"/>
<text xml:space="preserve" text-anchor="middle" x="520.76" y="-111.19" font-family="Times New Roman,serif" font-size="9.00">2</text>
</g>
<!-- Blob_X&#45;&gt;2 -->
<g id="edge19" class="edge">
<title>Blob_X&#45;&gt;2</title>
<path fill="none" stroke="green" stroke-width="0.3" d="M478.99,-164.71C485.88,-156.59 496.48,-144.11 505.28,-133.74"/>
<polygon fill="green" stroke="green" stroke-width="0.3" points="507.75,-136.24 511.55,-126.35 502.41,-131.71 507.75,-136.24"/>
</g>
<!-- Blob_Y -->
<g id="node2" class="node">
<title>Blob_Y</title>
<polygon fill="lightgray" stroke="black" points="97.01,-123.74 52.51,-123.74 52.51,-105.24 97.01,-105.24 97.01,-123.74"/>
<text xml:space="preserve" text-anchor="middle" x="74.76" y="-111.19" font-family="Times New Roman,serif" font-size="9.00">Blob_Y</text>
</g>
<!-- Blob_Y&#45;&gt;Vel_Izq -->
<g id="edge3" class="edge">
<title>Blob_Y&#45;&gt;Vel_Izq</title>
<path fill="none" stroke="green" stroke-width="0.13" d="M89.21,-104.87C109.59,-92.72 147.39,-70.19 175.25,-53.57"/>
<polygon fill="green" stroke="green" stroke-width="0.13" points="176.95,-56.64 183.74,-48.51 173.36,-50.63 176.95,-56.64"/>
</g>
<!-- Blob_Y&#45;&gt;Vel_Der -->
<g id="edge4" class="edge">
<title>Blob_Y&#45;&gt;Vel_Der</title>
<path fill="none" stroke="red" stroke-width="0.14" stroke-dasharray="1,5" d="M93.26,-104.85C97.33,-103.11 101.65,-101.39 105.76,-99.99 167.8,-78.84 185.71,-81.88 248.76,-63.99 268.03,-58.53 289.24,-51.9 306.98,-46.17"/>
<polygon fill="red" stroke="red" stroke-width="0.14" points="307.81,-49.58 316.24,-43.17 305.65,-42.93 307.81,-49.58"/>
</g>
<!-- IR_delante -->
<g id="node3" class="node">
<title>IR_delante</title>
<polygon fill="lightgray" stroke="black" points="168.89,-123.74 114.64,-123.74 114.64,-105.24 168.89,-105.24 168.89,-123.74"/>
<text xml:space="preserve" text-anchor="middle" x="141.76" y="-111.19" font-family="Times New Roman,serif" font-size="9.00">IR_delante</text>
</g>
<!-- IR_delante&#45;&gt;Vel_Izq -->
<g id="edge5" class="edge">
<title>IR_delante&#45;&gt;Vel_Izq</title>
<path fill="none" stroke="red" stroke-width="0.12" d="M149.04,-104.87C157.39,-95 171.53,-78.25 184.07,-63.41"/>
<polygon fill="red" stroke="red" stroke-width="0.12" points="186.55,-65.9 190.33,-56.01 181.2,-61.39 186.55,-65.9"/>
</g>
<!-- IR_delante&#45;&gt;Vel_Der -->
<g id="edge6" class="edge">
<title>IR_delante&#45;&gt;Vel_Der</title>
<path fill="none" stroke="red" stroke-width="0.1" d="M163.7,-104.87C198.08,-91.38 265.12,-65.05 307.83,-48.28"/>
<polygon fill="red" stroke="red" stroke-width="0.1" points="308.91,-51.62 316.94,-44.71 306.35,-45.11 308.91,-51.62"/>
</g>
<!-- IR_atras -->
<g id="node4" class="node">
<title>IR_atras</title>
<polygon fill="lightgray" stroke="black" points="232.76,-123.74 186.76,-123.74 186.76,-105.24 232.76,-105.24 232.76,-123.74"/>
<text xml:space="preserve" text-anchor="middle" x="209.76" y="-111.19" font-family="Times New Roman,serif" font-size="9.00">IR_atras</text>
</g>
<!-- IR_atras&#45;&gt;Vel_Izq -->
<g id="edge7" class="edge">
<title>IR_atras&#45;&gt;Vel_Izq</title>
<path fill="none" stroke="green" stroke-width="0.1" d="M209.76,-104.87C209.76,-97.02 209.76,-84.81 209.76,-72.68"/>
<polygon fill="green" stroke="green" stroke-width="0.1" points="213.26,-72.75 209.76,-62.75 206.26,-72.75 213.26,-72.75"/>
</g>
<!-- IR_atras&#45;&gt;Vel_Der -->
<g id="edge8" class="edge">
<title>IR_atras&#45;&gt;Vel_Der</title>
<path fill="none" stroke="green" stroke-width="0.15" d="M224.43,-104.87C244.79,-92.91 282.32,-70.86 310.46,-54.33"/>
<polygon fill="green" stroke="green" stroke-width="0.15" points="312.19,-57.37 319.04,-49.29 308.64,-51.34 312.19,-57.37"/>
</g>
<!-- IR_ll -->
<g id="node5" class="node">
<title>IR_ll</title>
<polygon fill="lightgray" stroke="black" points="284.76,-123.74 250.76,-123.74 250.76,-105.24 284.76,-105.24 284.76,-123.74"/>
<text xml:space="preserve" text-anchor="middle" x="267.76" y="-111.19" font-family="Times New Roman,serif" font-size="9.00">IR_ll</text>
</g>
<!-- IR_ll&#45;&gt;Vel_Izq -->
<g id="edge9" class="edge">
<title>IR_ll&#45;&gt;Vel_Izq</title>
<path fill="none" stroke="red" stroke-width="0.11" d="M261.56,-104.87C254.77,-95.45 243.47,-79.77 233.16,-65.46"/>
<polygon fill="red" stroke="red" stroke-width="0.11" points="236.02,-63.45 227.33,-57.38 230.34,-67.54 236.02,-63.45"/>
</g>
<!-- IR_ll&#45;&gt;Vel_Der -->
<g id="edge10" class="edge">
<title>IR_ll&#45;&gt;Vel_Der</title>
<path fill="none" stroke="green" stroke-width="0.11" d="M276.22,-104.87C286.07,-94.84 302.88,-77.71 317.62,-62.69"/>
<polygon fill="green" stroke="green" stroke-width="0.11" points="320.03,-65.23 324.54,-55.64 315.04,-60.33 320.03,-65.23"/>
</g>
<!-- IR_l -->
<g id="node6" class="node">
<title>IR_l</title>
<polygon fill="lightgray" stroke="black" points="543.64,-183.48 511.89,-183.48 511.89,-164.98 543.64,-164.98 543.64,-183.48"/>
<text xml:space="preserve" text-anchor="middle" x="527.76" y="-170.93" font-family="Times New Roman,serif" font-size="9.00">IR_l</text>
</g>
<!-- IR_l&#45;&gt;Vel_Izq -->
<g id="edge11" class="edge">
<title>IR_l&#45;&gt;Vel_Izq</title>
<path fill="none" stroke="green" stroke-width="0.13" d="M511.51,-167.25C508.63,-166.37 505.63,-165.56 502.76,-164.98 452.61,-154.9 78.49,-166.55 43.76,-128.98 1.7,-83.49 108.56,-53.41 170.02,-40.38"/>
<polygon fill="green" stroke="green" stroke-width="0.13" points="170.55,-43.84 179.64,-38.4 169.14,-36.99 170.55,-43.84"/>
</g>
<!-- IR_l&#45;&gt;Vel_Der -->
<g id="edge12" class="edge">
<title>IR_l&#45;&gt;Vel_Der</title>
<path fill="none" stroke="green" stroke-width="0.14" d="M533.57,-164.69C542.7,-150.06 558.01,-119.89 543.76,-99.99 508.66,-50.98 435.61,-37.4 389,-33.88"/>
<polygon fill="green" stroke="green" stroke-width="0.14" points="389.33,-30.4 379.13,-33.26 388.89,-37.38 389.33,-30.4"/>
</g>
<!-- IR_l&#45;&gt;2 -->
<g id="edge21" class="edge">
<title>IR_l&#45;&gt;2</title>
<path fill="none" stroke="green" stroke-width="0.11" d="M526.73,-164.71C525.9,-157.88 524.7,-147.94 523.59,-138.78"/>
<polygon fill="green" stroke="green" stroke-width="0.11" points="527.1,-138.65 522.42,-129.15 520.15,-139.5 527.1,-138.65"/>
</g>
<!-- IR_rr -->
<g id="node7" class="node">
<title>IR_rr</title>
<polygon fill="lightgray" stroke="black" points="338.51,-123.74 303.01,-123.74 303.01,-105.24 338.51,-105.24 338.51,-123.74"/>
<text xml:space="preserve" text-anchor="middle" x="320.76" y="-111.19" font-family="Times New Roman,serif" font-size="9.00">IR_rr</text>
</g>
<!-- IR_rr&#45;&gt;Vel_Izq -->
<g id="edge13" class="edge">
<title>IR_rr&#45;&gt;Vel_Izq</title>
<path fill="none" stroke="red" stroke-width="0.1" d="M308.89,-104.87C293.05,-93.39 264.4,-72.62 241.96,-56.35"/>
<polygon fill="red" stroke="red" stroke-width="0.1" points="244.29,-53.71 234.14,-50.67 240.18,-59.38 244.29,-53.71"/>
</g>
<!-- IR_rr&#45;&gt;Vel_Der -->
<g id="edge14" class="edge">
<title>IR_rr&#45;&gt;Vel_Der</title>
<path fill="none" stroke="red" stroke-width="0.12" d="M323.55,-104.87C326.09,-97 330.04,-84.77 333.97,-72.61"/>
<polygon fill="red" stroke="red" stroke-width="0.12" points="337.29,-73.72 337.03,-63.13 330.63,-71.57 337.29,-73.72"/>
</g>
<!-- IR_r -->
<g id="node8" class="node">
<title>IR_r</title>
<polygon fill="lightgray" stroke="black" points="389.01,-123.74 356.51,-123.74 356.51,-105.24 389.01,-105.24 389.01,-123.74"/>
<text xml:space="preserve" text-anchor="middle" x="372.76" y="-111.19" font-family="Times New Roman,serif" font-size="9.00">IR_r</text>
</g>
<!-- IR_r&#45;&gt;Vel_Izq -->
<g id="edge15" class="edge">
<title>IR_r&#45;&gt;Vel_Izq</title>
<path fill="none" stroke="green" stroke-width="0.11" d="M356.95,-104.82C353.91,-103.19 350.75,-101.52 347.76,-99.99 313.59,-82.48 274.13,-63.44 246.18,-50.15"/>
<polygon fill="green" stroke="green" stroke-width="0.11" points="247.86,-47.07 237.32,-45.95 244.86,-53.4 247.86,-47.07"/>
</g>
<!-- IR_r&#45;&gt;Vel_Der -->
<g id="edge16" class="edge">
<title>IR_r&#45;&gt;Vel_Der</title>
<path fill="none" stroke="green" stroke-width="0.1" d="M369.98,-104.87C367.44,-97 363.49,-84.77 359.56,-72.61"/>
<polygon fill="green" stroke="green" stroke-width="0.1" points="362.9,-71.55 356.49,-63.11 356.23,-73.7 362.9,-71.55"/>
</g>
<!-- Tamano -->
<g id="node9" class="node">
<title>Tamano</title>
<polygon fill="lightgray" stroke="black" points="450.64,-123.74 406.89,-123.74 406.89,-105.24 450.64,-105.24 450.64,-123.74"/>
<text xml:space="preserve" text-anchor="middle" x="428.76" y="-111.19" font-family="Times New Roman,serif" font-size="9.00">Tamano</text>
</g>
<!-- Tamano&#45;&gt;Vel_Izq -->
<g id="edge17" class="edge">
<title>Tamano&#45;&gt;Vel_Izq</title>
<path fill="none" stroke="green" stroke-width="0.11" d="M409.5,-104.86C405.63,-103.2 401.59,-101.5 397.76,-99.99 346.37,-79.68 286.05,-58.67 247.87,-45.72"/>
<polygon fill="green" stroke="green" stroke-width="0.11" points="249.41,-42.55 238.82,-42.66 247.17,-49.18 249.41,-42.55"/>
</g>
<!-- Tamano&#45;&gt;Vel_Der -->
<g id="edge18" class="edge">
<title>Tamano&#45;&gt;Vel_Der</title>
<path fill="none" stroke="red" stroke-width="0.1" d="M419.99,-104.87C409.6,-94.68 391.75,-77.15 376.28,-61.96"/>
<polygon fill="red" stroke="red" stroke-width="0.1" points="379.07,-59.8 369.48,-55.3 374.17,-64.8 379.07,-59.8"/>
</g>
<!-- 2&#45;&gt;Vel_Der -->
<g id="edge20" class="edge">
<title>2&#45;&gt;Vel_Der</title>
<path fill="none" stroke="red" stroke-width="0.1" d="M507.96,-107.26C503.2,-104.95 497.75,-102.34 492.76,-99.99 456.33,-82.85 414.55,-63.74 385.05,-50.33"/>
<polygon fill="red" stroke="red" stroke-width="0.1" points="386.62,-47.2 376.07,-46.25 383.73,-53.57 386.62,-47.2"/>
</g>
</g>
</svg>
